<svg aria-hidden="true" style="position: absolute; width: 0; height: 0; overflow: hidden;" version="1.1" xmlns="http://www.w3.org/2000/svg" xmlns:xlink="http://www.w3.org/1999/xlink">
<defs>
<symbol id="arrow-left" viewBox="0 0 32 32">
<path d="M5.333 16h21.333M5.333 16l8-8M5.333 16l8 8"></path>
</symbol>
<symbol id="burger" viewBox="0 0 32 32">
<path d="M5.333 9.333h21.333M5.333 16h21.333M5.333 22.667h21.333"></path>
</symbol>
<symbol id="camera" viewBox="0 0 32 32">
<path d="M16 21.333c2.209 0 4-1.791 4-4s-1.791-4-4-4v0c-2.209 0-4 1.791-4 4s1.791 4 4 4v0z"></path>
<path d="M4 12c0-1.473 1.194-2.667 2.667-2.667v0h3.333c0.736 0 1.333-0.597 1.333-1.333v0c0-0.736 0.597-1.333 1.333-1.333v0h6.667c0.736 0 1.333 0.597 1.333 1.333v0c0 0.736 0.597 1.333 1.333 1.333v0h3.333c1.473 0 2.667 1.194 2.667 2.667v0 10.667c0 1.473-1.194 2.667-2.667 2.667v0h-18.667c-1.473 0-2.667-1.194-2.667-2.667v0-10.667z"></path>
</symbol>
<symbol id="check" viewBox="0 0 32 32">
<path d="M22.667 12l-9.333 9.333-4-4M10.667 26.667h10.667c2.946 0 5.333-2.388 5.333-5.333v0-10.667c0-2.946-2.388-5.333-5.333-5.333v0h-10.667c-2.946 0-5.333 2.388-5.333 5.333v0 10.667c0 2.946 2.388 5.333 5.333 5.333v0z"></path>
</symbol>
<symbol id="clock" viewBox="0 0 32 32">
<path  d="M16.33 9.6v6.4l3.84 3.84M27.85 16c0 6.362-5.158 11.52-11.52 11.52s-11.52-5.158-11.52-11.52v0c0-6.362 5.158-11.52 11.52-11.52s11.52 5.158 11.52 11.52v0z"></path>
</symbol>
<symbol id="cross" viewBox="0 0 32 32">
<path d="M25.333 6.667l-18.667 18.667M6.667 6.667l18.667 18.667"></path>
</symbol>
<symbol id="cross-small" viewBox="0 0 32 32">
<path d="M21.333 10.667l-10.667 10.667M10.667 10.667l10.667 10.667"></path>
</symbol>
<symbol id="complite" viewBox="0 0 32 32">
<path d="M26.667 9.333l-14.667 14.667-6.667-6.667"></path>
</symbol>
<symbol id="down" viewBox="0 0 32 32">
<path d="M5.333 12l10.667 10.667 10.667-10.667"></path>
</symbol>
<symbol id="edit" viewBox="0 0 32 32">
<path d="M6.667 20.941l-0.707-0.707c-0.181 0.181-0.293 0.431-0.293 0.707v0h1zM20.941 6.667l0.707-0.707c-0.181-0.181-0.431-0.292-0.707-0.292s-0.526 0.112-0.707 0.292v0l0.707 0.707zM25.333 11.059l0.707 0.707c0.181-0.181 0.292-0.431 0.292-0.707s-0.112-0.526-0.292-0.707v0l-0.707 0.707zM11.059 25.333v1c0.276-0 0.526-0.112 0.707-0.293v0l-0.707-0.707zM6.667 25.333h-1c0 0.552 0.448 1 1 1v-1zM15.451 24.333c-0.552 0-1 0.448-1 1s0.448 1 1 1v0-2zM24.784 26.333c0.552 0 1-0.448 1-1s-0.448-1-1-1v0 2zM7.373 21.648l14.275-14.275-1.413-1.413-14.275 14.275 1.413 1.413zM20.235 7.373l4.392 4.392 1.413-1.413-4.392-4.392-1.413 1.413zM24.627 10.352l-14.275 14.275 1.413 1.413 14.275-14.275-1.413-1.413zM11.059 24.333h-4.392v2h4.392v-2zM7.667 25.333v-4.392h-2v4.392h2zM16.94 10.667l4.392 4.393 1.413-1.413-4.391-4.393-1.415 1.413zM15.451 26.333h9.333v-2h-9.333v2z"></path>
</symbol>
<symbol id="eye-closed" viewBox="0 0 32 32">
<path d="M13.019 7.060c0.894-0.25 1.921-0.393 2.981-0.393 0 0 0 0 0.001 0h-0c8.485 0 13.333 9.333 13.333 9.333s-1.105 2.128-3.184 4.352M5.799 11.703c-2.045 2.205-3.132 4.297-3.132 4.297s4.848 9.333 13.333 9.333c1.079-0 2.123-0.149 3.113-0.427l-0.081 0.019M15.333 19.947c-1.45-0.252-2.616-1.255-3.098-2.585l-0.009-0.028M16.667 12.055c1.68 0.292 2.987 1.599 3.275 3.255l0.003 0.024M4 4l24 24"></path>
</symbol>
<symbol id="eye-open" viewBox="0 0 32 32">
<path d="M2.667 16s4.848-9.333 13.333-9.333 13.333 9.333 13.333 9.333-4.848 9.333-13.333 9.333-13.333-9.333-13.333-9.333z"></path>
<path d="M16 20c2.209 0 4-1.791 4-4s-1.791-4-4-4v0c-2.209 0-4 1.791-4 4s1.791 4 4 4v0z"></path>
</symbol>
<symbol id="female" viewBox="0 0 32 32">
<path d="M16.33 17.28c3.535 0 6.4-2.865 6.4-6.4s-2.865-6.4-6.4-6.4v0c-3.535 0-6.4 2.865-6.4 6.4s2.865 6.4 6.4 6.4v0zM16.33 17.28v10.24M12.49 23.68h7.68"></path>
</symbol>
<symbol id="filters" viewBox="0 0 32 32">
<path d="M6.090 5.76l6.4 10.24v7.68l7.68 3.84v-11.52l6.4-10.24h-20.48z"></path>
</symbol>
<symbol id="filters-burger" viewBox="0 0 32 32">
<path d="M18.667 6.667c0-1.473-1.194-2.667-2.667-2.667s-2.667 1.194-2.667 2.667v0M18.667 6.667c0 1.473-1.194 2.667-2.667 2.667s-2.667-1.194-2.667-2.667v0M18.667 6.667h8M13.333 6.667h-8M21.333 16c0 1.473 1.194 2.667 2.667 2.667s2.667-1.194 2.667-2.667v0c0-1.473-1.194-2.667-2.667-2.667s-2.667 1.194-2.667 2.667v0zM21.333 16h-16M10.667 25.333c0-1.473-1.194-2.667-2.667-2.667s-2.667 1.194-2.667 2.667v0c0 1.473 1.194 2.667 2.667 2.667s2.667-1.194 2.667-2.667v0zM10.667 25.333h16"></path>
</symbol>
<symbol id="heart" viewBox="0 0 32 32">
<path d="M5.775 16.063l10.225 10.604 10.225-10.604c1.099-1.148 1.775-2.708 1.775-4.426 0-0.007 0-0.013-0-0.019v0.001c0-3.471-2.713-6.285-6.061-6.285-1.685 0.005-3.204 0.71-4.283 1.838l-0.002 0.002-1.653 1.717-1.653-1.717c-1.082-1.13-2.601-1.835-4.284-1.84h-0.001c-3.347 0-6.061 2.813-6.061 6.285 0 1.667 0.639 3.267 1.775 4.444z"></path>
</symbol>
<symbol id="location" viewBox="0 0 32 32">
<path d="M26.57 14.72c0 5.655-4.585 10.24-10.24 12.8-5.655-2.56-10.24-7.145-10.24-12.8s4.585-10.24 10.24-10.24 10.24 4.585 10.24 10.24v0z"></path>
<path d="M20.17 14.72c0 2.121-1.719 3.84-3.84 3.84s-3.84-1.719-3.84-3.84v0c0-2.121 1.719-3.84 3.84-3.84s3.84 1.719 3.84 3.84v0z"></path>
</symbol>
<symbol id="logout" viewBox="0 0 32 32">
<path d="M18.667 5.333h5.333c1.473 0 2.667 1.194 2.667 2.667v0 16c0 1.473-1.194 2.667-2.667 2.667v0h-5.333M4 16h16M4 16l5.333-5.333M4 16l5.333 5.333"></path>
</symbol>
<symbol id="male" viewBox="0 0 32 32">
<path d="M16.33 14.72c-3.535 0-6.4 2.865-6.4 6.4s2.865 6.4 6.4 6.4v0c3.535 0 6.4-2.865 6.4-6.4s-2.865-6.4-6.4-6.4v0zM16.33 14.72v-10.24M16.33 4.48l5.12 5.12M16.33 4.48l-5.12 5.12"></path>
</symbol>
<symbol id="paw" viewBox="0 0 32 32">
<path  d="M20.481 19.149c-0.364-2.684-2.056-4.905-4.382-6.004l-0.047-0.020c-0.965-0.463-2.098-0.734-3.294-0.734-1.547 0-2.988 0.453-4.198 1.232l0.031-0.018-5.432 3.439c-0.889 0.566-1.572 1.387-1.952 2.36l-0.012 0.033c-0.21 0.526-0.332 1.135-0.332 1.773 0 0.47 0.066 0.925 0.19 1.355l-0.008-0.035c0.296 1.051 0.903 1.933 1.714 2.565l0.011 0.008c0.841 0.655 1.851 1.013 2.919 1.037l0.069 0.001c2.786 0.087 5.265 1.337 6.978 3.279l0.009 0.011c0.682 0.777 1.598 1.335 2.637 1.563l0.033 0.006c0.313 0.071 0.671 0.112 1.040 0.112 0.74 0 1.441-0.164 2.070-0.458l-0.030 0.013c0.974-0.448 1.756-1.175 2.261-2.078l0.013-0.025c0.517-0.933 0.715-1.987 0.573-3.044l-0.859-6.372zM17.716 28.961c-1.236 0.561-2.667 0.253-3.563-0.767-1.042-1.182-2.306-2.142-3.73-2.818l-0.070-0.030c-1.354-0.647-2.937-1.041-4.609-1.080l-0.014-0-0.047-0.001c-1.352-0.046-2.477-0.968-2.827-2.215l-0.005-0.021c-0.072-0.247-0.114-0.532-0.114-0.825 0-1.080 0.563-2.028 1.411-2.567l0.012-0.007 5.433-3.44c0.895-0.578 1.989-0.922 3.164-0.922 0.908 0 1.769 0.206 2.537 0.573l-0.036-0.015c1.801 0.85 3.086 2.535 3.359 4.543l0.003 0.031 0.857 6.373c0.018 0.125 0.029 0.27 0.029 0.417 0 1.227-0.727 2.284-1.774 2.765l-0.019 0.008zM6.295 12.527c1.104 0.077 2.165-0.345 2.992-1.189 0.787-0.803 1.264-1.901 1.347-3.091 0.080-1.189-0.243-2.343-0.909-3.247-0.703-0.948-1.696-1.513-2.799-1.589-2.216-0.153-4.16 1.767-4.336 4.281-0.137 2.003 0.891 3.787 2.433 4.507 0.395 0.183 0.823 0.297 1.272 0.328zM4.461 7.82c0.103-1.48 1.151-2.62 2.336-2.537 0.213 0.013 0.421 0.069 0.617 0.16 0.303 0.141 0.576 0.369 0.8 0.673 0.404 0.545 0.597 1.256 0.547 2.001-0.052 0.747-0.341 1.423-0.816 1.908-0.435 0.444-0.975 0.668-1.52 0.631-1.185-0.081-2.067-1.353-1.964-2.835zM14.188 11.529c2.349 1.095 5.276-0.191 6.524-2.867 1.248-2.677 0.352-5.747-1.997-6.841-2.348-1.096-5.275 0.191-6.523 2.867-1.248 2.677-0.352 5.747 1.996 6.84zM17.923 3.521c1.412 0.657 1.9 2.608 1.089 4.348-0.811 1.739-2.62 2.617-4.031 1.96-1.412-0.659-1.9-2.609-1.089-4.347 0.811-1.74 2.619-2.62 4.031-1.961zM20.992 16.152c0.305 0.288 0.647 0.517 1.013 0.689 1.713 0.799 3.965 0.331 5.496-1.289 0.88-0.932 1.4-2.109 1.463-3.315 0.067-1.263-0.371-2.405-1.231-3.217-0.859-0.811-2.024-1.184-3.28-1.047-1.201 0.131-2.347 0.715-3.228 1.648-1.859 1.965-1.963 4.896-0.233 6.531zM22.588 10.909c0.576-0.609 1.309-0.989 2.067-1.072 0.701-0.076 1.337 0.119 1.791 0.547 0.453 0.427 0.683 1.052 0.645 1.756-0.040 0.76-0.377 1.515-0.953 2.124-1.147 1.213-2.879 1.451-3.857 0.525-0.977-0.925-0.84-2.667 0.308-3.88zM30.227 19.769c-1.063-1.953-3.727-2.564-5.941-1.363-2.213 1.203-3.151 3.769-2.092 5.72 0.387 0.713 0.987 1.247 1.699 1.58 1.244 0.58 2.833 0.548 4.241-0.216 2.213-1.203 3.152-3.769 2.093-5.721zM27.24 23.843c-1.307 0.708-2.832 0.435-3.397-0.609-0.567-1.044 0.035-2.469 1.339-3.179 0.867-0.471 1.829-0.507 2.545-0.173 0.361 0.168 0.661 0.432 0.852 0.783 0.565 1.044-0.036 2.469-1.34 3.179z"></path>
</symbol>
<symbol id="plus" viewBox="0 0 32 32">
<path d="M16 26.667v-10.667M16 16v-10.667M16 16h10.667M16 16h-10.667"></path>
</symbol>
<symbol id="plus-small" viewBox="0 0 32 32">
<path d="M16 9.333v13.333M9.333 16h13.333"></path>
</symbol>
<symbol id="search" viewBox="0 0 32 32">
<path d="M25.96 27.373c0.183 0.196 0.443 0.318 0.732 0.318 0.552 0 1-0.448 1-1 0-0.289-0.122-0.549-0.318-0.731l-0.001-0.001-1.413 1.413zM23 14c0 4.971-4.029 9-9 9v0 2c6.075 0 11-4.925 11-11v0h-2zM14 23c-4.971 0-9-4.029-9-9v0h-2c0 6.075 4.925 11 11 11v0-2zM5 14c0-4.971 4.029-9 9-9v0-2c-6.075 0-11 4.925-11 11v0h2zM14 5c4.971 0 9 4.029 9 9v0h2c0-6.075-4.925-11-11-11v0 2zM27.373 25.96l-5.583-5.584-1.413 1.413 5.583 5.584 1.413-1.413z"></path>
</symbol>
<symbol id="trash" viewBox="0 0 32 32">
<path d="M24 8v16c0 1.473-1.194 2.667-2.667 2.667v0h-10.667c-1.473 0-2.667-1.194-2.667-2.667v0-16M20 8v-1.333c0-1.473-1.194-2.667-2.667-2.667v0h-2.667c-1.473 0-2.667 1.194-2.667 2.667v0 1.333M5.333 8h21.333M13.333 13.333v8M18.667 13.333v8"></path>
</symbol>
<symbol id="uncheck" viewBox="0 0 32 32">
<path d="M5.333 10.667c0-2.946 2.388-5.333 5.333-5.333v0h10.667c2.946 0 5.333 2.388 5.333 5.333v0 10.667c0 2.946-2.388 5.333-5.333 5.333v0h-10.667c-2.946 0-5.333-2.388-5.333-5.333v0-10.667z"></path>
</symbol>
<symbol id="up" viewBox="0 0 32 32">
<path d="M26.667 20l-10.667-10.667-10.667 10.667"></path>
</symbol>
<symbol id="user" viewBox="0 0 32 32">
<path d="M25.143 27.429v-2.286c0-2.525-2.047-4.571-4.571-4.571v0h-9.143c-2.525 0-4.571 2.047-4.571 4.571v0 2.286M20.571 11.429c0 2.525-2.047 4.571-4.571 4.571s-4.571-2.047-4.571-4.571v0c0-2.525 2.047-4.571 4.571-4.571s4.571 2.047 4.571 4.571v0z"></path>
<path d="M16 0.857c8.363 0 15.143 6.78 15.143 15.143s-6.78 15.143-15.143 15.143c-8.363 0-15.143-6.78-15.143-15.143s6.78-15.143 15.143-15.143z"></path>
</symbol>

</defs>
</svg>
