<svg aria-hidden="true" style="position: absolute; width: 0; height: 0; overflow: hidden;" version="1.1" xmlns="http://www.w3.org/2000/svg" xmlns:xlink="http://www.w3.org/1999/xlink">
<defs>
<symbol id="arrow-left" viewBox="0 0 32 32">
<path d="M5.333 16h21.333M5.333 16l8-8M5.333 16l8 8"></path>
</symbol>
<symbol id="burger" viewBox="0 0 32 32">
<path d="M5.333 9.333h21.333M5.333 16h21.333M5.333 22.667h21.333"></path>
</symbol>
<symbol id="camera" viewBox="0 0 32 32">
<path d="M16 21.333c2.209 0 4-1.791 4-4s-1.791-4-4-4v0c-2.209 0-4 1.791-4 4s1.791 4 4 4v0z"></path>
<path d="M4 12c0-1.473 1.194-2.667 2.667-2.667v0h3.333c0.736 0 1.333-0.597 1.333-1.333v0c0-0.736 0.597-1.333 1.333-1.333v0h6.667c0.736 0 1.333 0.597 1.333 1.333v0c0 0.736 0.597 1.333 1.333 1.333v0h3.333c1.473 0 2.667 1.194 2.667 2.667v0 10.667c0 1.473-1.194 2.667-2.667 2.667v0h-18.667c-1.473 0-2.667-1.194-2.667-2.667v0-10.667z"></path>
</symbol>
<symbol id="check" viewBox="0 0 32 32">
<path d="M22.667 12l-9.333 9.333-4-4M10.667 26.667h10.667c2.946 0 5.333-2.388 5.333-5.333v0-10.667c0-2.946-2.388-5.333-5.333-5.333v0h-10.667c-2.946 0-5.333 2.388-5.333 5.333v0 10.667c0 2.946 2.388 5.333 5.333 5.333v0z"></path>
</symbol>
<symbol id="clock" viewBox="0 0 32 32">
<path  d="M16.33 9.6v6.4l3.84 3.84M27.85 16c0 6.362-5.158 11.52-11.52 11.52s-11.52-5.158-11.52-11.52v0c0-6.362 5.158-11.52 11.52-11.52s11.52 5.158 11.52 11.52v0z"></path>
</symbol>
<symbol id="cross" viewBox="0 0 32 32">
<path d="M25.333 6.667l-18.667 18.667M6.667 6.667l18.667 18.667"></path>
</symbol>
<symbol id="cross-small" viewBox="0 0 32 32">
<path d="M21.333 10.667l-10.667 10.667M10.667 10.667l10.667 10.667"></path>
</symbol>
<symbol id="complite" viewBox="0 0 32 32">
<path d="M26.667 9.333l-14.667 14.667-6.667-6.667"></path>
</symbol>
<symbol id="down" viewBox="0 0 32 32">
<path d="M5.333 12l10.667 10.667 10.667-10.667"></path>
</symbol>
<symbol id="edit" viewBox="0 0 32 32">
<path d="M6.667 20.941l-0.707-0.707c-0.181 0.181-0.293 0.431-0.293 0.707v0h1zM20.941 6.667l0.707-0.707c-0.181-0.181-0.431-0.292-0.707-0.292s-0.526 0.112-0.707 0.292v0l0.707 0.707zM25.333 11.059l0.707 0.707c0.181-0.181 0.292-0.431 0.292-0.707s-0.112-0.526-0.292-0.707v0l-0.707 0.707zM11.059 25.333v1c0.276-0 0.526-0.112 0.707-0.293v0l-0.707-0.707zM6.667 25.333h-1c0 0.552 0.448 1 1 1v-1zM15.451 24.333c-0.552 0-1 0.448-1 1s0.448 1 1 1v0-2zM24.784 26.333c0.552 0 1-0.448 1-1s-0.448-1-1-1v0 2zM7.373 21.648l14.275-14.275-1.413-1.413-14.275 14.275 1.413 1.413zM20.235 7.373l4.392 4.392 1.413-1.413-4.392-4.392-1.413 1.413zM24.627 10.352l-14.275 14.275 1.413 1.413 14.275-14.275-1.413-1.413zM11.059 24.333h-4.392v2h4.392v-2zM7.667 25.333v-4.392h-2v4.392h2zM16.94 10.667l4.392 4.393 1.413-1.413-4.391-4.393-1.415 1.413zM15.451 26.333h9.333v-2h-9.333v2z"></path>
</symbol>
<symbol id="eye-closed" viewBox="0 0 32 32">
<path d="M13.019 7.060c0.894-0.25 1.921-0.393 2.981-0.393 0 0 0 0 0.001 0h-0c8.485 0 13.333 9.333 13.333 9.333s-1.105 2.128-3.184 4.352M5.799 11.703c-2.045 2.205-3.132 4.297-3.132 4.297s4.848 9.333 13.333 9.333c1.079-0 2.123-0.149 3.113-0.427l-0.081 0.019M15.333 19.947c-1.45-0.252-2.616-1.255-3.098-2.585l-0.009-0.028M16.667 12.055c1.68 0.292 2.987 1.599 3.275 3.255l0.003 0.024M4 4l24 24"></path>
</symbol>
<symbol id="eye-open" viewBox="0 0 32 32">
<path d="M2.667 16s4.848-9.333 13.333-9.333 13.333 9.333 13.333 9.333-4.848 9.333-13.333 9.333-13.333-9.333-13.333-9.333z"></path>
<path d="M16 20c2.209 0 4-1.791 4-4s-1.791-4-4-4v0c-2.209 0-4 1.791-4 4s1.791 4 4 4v0z"></path>
</symbol>
<symbol id="female" viewBox="0 0 19 32">
<path d="M9.6 17.6c4.418 0 8-3.582 8-8s-3.582-8-8-8v0c-4.418 0-8 3.582-8 8s3.582 8 8 8v0zM9.6 17.6v12.8M4.8 25.6h9.6"></path>
</symbol>
<symbol id="filters" viewBox="0 0 32 32">
<path d="M6.090 5.76l6.4 10.24v7.68l7.68 3.84v-11.52l6.4-10.24h-20.48z"></path>
</symbol>
<symbol id="filters-burger" viewBox="0 0 32 32">
<path d="M18.667 6.667c0-1.473-1.194-2.667-2.667-2.667s-2.667 1.194-2.667 2.667v0M18.667 6.667c0 1.473-1.194 2.667-2.667 2.667s-2.667-1.194-2.667-2.667v0M18.667 6.667h8M13.333 6.667h-8M21.333 16c0 1.473 1.194 2.667 2.667 2.667s2.667-1.194 2.667-2.667v0c0-1.473-1.194-2.667-2.667-2.667s-2.667 1.194-2.667 2.667v0zM21.333 16h-16M10.667 25.333c0-1.473-1.194-2.667-2.667-2.667s-2.667 1.194-2.667 2.667v0c0 1.473 1.194 2.667 2.667 2.667s2.667-1.194 2.667-2.667v0zM10.667 25.333h16"></path>
</symbol>
<symbol id="heart" viewBox="0 0 32 32">
<path d="M5.775 16.063l10.225 10.604 10.225-10.604c1.099-1.148 1.775-2.708 1.775-4.426 0-0.007 0-0.013-0-0.019v0.001c0-3.471-2.713-6.285-6.061-6.285-1.685 0.005-3.204 0.71-4.283 1.838l-0.002 0.002-1.653 1.717-1.653-1.717c-1.082-1.13-2.601-1.835-4.284-1.84h-0.001c-3.347 0-6.061 2.813-6.061 6.285 0 1.667 0.639 3.267 1.775 4.444z"></path>
</symbol>
<symbol id="location" viewBox="0 0 32 32">
<path d="M26.57 14.72c0 5.655-4.585 10.24-10.24 12.8-5.655-2.56-10.24-7.145-10.24-12.8s4.585-10.24 10.24-10.24 10.24 4.585 10.24 10.24v0z"></path>
<path d="M20.17 14.72c0 2.121-1.719 3.84-3.84 3.84s-3.84-1.719-3.84-3.84v0c0-2.121 1.719-3.84 3.84-3.84s3.84 1.719 3.84 3.84v0z"></path>
</symbol>
<symbol id="logout" viewBox="0 0 32 32">
<path d="M18.667 5.333h5.333c1.473 0 2.667 1.194 2.667 2.667v0 16c0 1.473-1.194 2.667-2.667 2.667v0h-5.333M4 16h16M4 16l5.333-5.333M4 16l5.333 5.333"></path>
</symbol>
<symbol id="male" viewBox="0 0 19 32">
<path  d="M9.6 14.4c-4.418 0-8 3.582-8 8s3.582 8 8 8v0c4.418 0 8-3.582 8-8s-3.582-8-8-8v0zM9.6 14.4v-12.8M9.6 1.6l6.4 6.4M9.6 1.6l-6.4 6.4"></path>
</symbol>
<symbol id="paw" viewBox="0 0 32 32">
<path  d="M20.481 19.149c-0.364-2.684-2.056-4.905-4.382-6.004l-0.047-0.020c-0.965-0.463-2.098-0.734-3.294-0.734-1.547 0-2.988 0.453-4.198 1.232l0.031-0.018-5.432 3.439c-0.889 0.566-1.572 1.387-1.952 2.36l-0.012 0.033c-0.21 0.526-0.332 1.135-0.332 1.773 0 0.47 0.066 0.925 0.19 1.355l-0.008-0.035c0.296 1.051 0.903 1.933 1.714 2.565l0.011 0.008c0.841 0.655 1.851 1.013 2.919 1.037l0.069 0.001c2.786 0.087 5.265 1.337 6.978 3.279l0.009 0.011c0.682 0.777 1.598 1.335 2.637 1.563l0.033 0.006c0.313 0.071 0.671 0.112 1.040 0.112 0.74 0 1.441-0.164 2.070-0.458l-0.030 0.013c0.974-0.448 1.756-1.175 2.261-2.078l0.013-0.025c0.517-0.933 0.715-1.987 0.573-3.044l-0.859-6.372zM17.716 28.961c-1.236 0.561-2.667 0.253-3.563-0.767-1.042-1.182-2.306-2.142-3.73-2.818l-0.070-0.030c-1.354-0.647-2.937-1.041-4.609-1.080l-0.014-0-0.047-0.001c-1.352-0.046-2.477-0.968-2.827-2.215l-0.005-0.021c-0.072-0.247-0.114-0.532-0.114-0.825 0-1.080 0.563-2.028 1.411-2.567l0.012-0.007 5.433-3.44c0.895-0.578 1.989-0.922 3.164-0.922 0.908 0 1.769 0.206 2.537 0.573l-0.036-0.015c1.801 0.85 3.086 2.535 3.359 4.543l0.003 0.031 0.857 6.373c0.018 0.125 0.029 0.27 0.029 0.417 0 1.227-0.727 2.284-1.774 2.765l-0.019 0.008zM6.295 12.527c1.104 0.077 2.165-0.345 2.992-1.189 0.787-0.803 1.264-1.901 1.347-3.091 0.080-1.189-0.243-2.343-0.909-3.247-0.703-0.948-1.696-1.513-2.799-1.589-2.216-0.153-4.16 1.767-4.336 4.281-0.137 2.003 0.891 3.787 2.433 4.507 0.395 0.183 0.823 0.297 1.272 0.328zM4.461 7.82c0.103-1.48 1.151-2.62 2.336-2.537 0.213 0.013 0.421 0.069 0.617 0.16 0.303 0.141 0.576 0.369 0.8 0.673 0.404 0.545 0.597 1.256 0.547 2.001-0.052 0.747-0.341 1.423-0.816 1.908-0.435 0.444-0.975 0.668-1.52 0.631-1.185-0.081-2.067-1.353-1.964-2.835zM14.188 11.529c2.349 1.095 5.276-0.191 6.524-2.867 1.248-2.677 0.352-5.747-1.997-6.841-2.348-1.096-5.275 0.191-6.523 2.867-1.248 2.677-0.352 5.747 1.996 6.84zM17.923 3.521c1.412 0.657 1.9 2.608 1.089 4.348-0.811 1.739-2.62 2.617-4.031 1.96-1.412-0.659-1.9-2.609-1.089-4.347 0.811-1.74 2.619-2.62 4.031-1.961zM20.992 16.152c0.305 0.288 0.647 0.517 1.013 0.689 1.713 0.799 3.965 0.331 5.496-1.289 0.88-0.932 1.4-2.109 1.463-3.315 0.067-1.263-0.371-2.405-1.231-3.217-0.859-0.811-2.024-1.184-3.28-1.047-1.201 0.131-2.347 0.715-3.228 1.648-1.859 1.965-1.963 4.896-0.233 6.531zM22.588 10.909c0.576-0.609 1.309-0.989 2.067-1.072 0.701-0.076 1.337 0.119 1.791 0.547 0.453 0.427 0.683 1.052 0.645 1.756-0.040 0.76-0.377 1.515-0.953 2.124-1.147 1.213-2.879 1.451-3.857 0.525-0.977-0.925-0.84-2.667 0.308-3.88zM30.227 19.769c-1.063-1.953-3.727-2.564-5.941-1.363-2.213 1.203-3.151 3.769-2.092 5.72 0.387 0.713 0.987 1.247 1.699 1.58 1.244 0.58 2.833 0.548 4.241-0.216 2.213-1.203 3.152-3.769 2.093-5.721zM27.24 23.843c-1.307 0.708-2.832 0.435-3.397-0.609-0.567-1.044 0.035-2.469 1.339-3.179 0.867-0.471 1.829-0.507 2.545-0.173 0.361 0.168 0.661 0.432 0.852 0.783 0.565 1.044-0.036 2.469-1.34 3.179z"></path>
</symbol>
<symbol id="plus" viewBox="0 0 32 32">
<path d="M16 26.667v-10.667M16 16v-10.667M16 16h10.667M16 16h-10.667"></path>
</symbol>
<symbol id="plus-small" viewBox="0 0 32 32">
<path d="M16 9.333v13.333M9.333 16h13.333"></path>
</symbol>
<symbol id="search" viewBox="0 0 32 32">
<path d="M25.96 27.373c0.183 0.196 0.443 0.318 0.732 0.318 0.552 0 1-0.448 1-1 0-0.289-0.122-0.549-0.318-0.731l-0.001-0.001-1.413 1.413zM23 14c0 4.971-4.029 9-9 9v0 2c6.075 0 11-4.925 11-11v0h-2zM14 23c-4.971 0-9-4.029-9-9v0h-2c0 6.075 4.925 11 11 11v0-2zM5 14c0-4.971 4.029-9 9-9v0-2c-6.075 0-11 4.925-11 11v0h2zM14 5c4.971 0 9 4.029 9 9v0h2c0-6.075-4.925-11-11-11v0 2zM27.373 25.96l-5.583-5.584-1.413 1.413 5.583 5.584 1.413-1.413z"></path>
</symbol>
<symbol id="trash" viewBox="0 0 32 32">
<path d="M24 8v16c0 1.473-1.194 2.667-2.667 2.667v0h-10.667c-1.473 0-2.667-1.194-2.667-2.667v0-16M20 8v-1.333c0-1.473-1.194-2.667-2.667-2.667v0h-2.667c-1.473 0-2.667 1.194-2.667 2.667v0 1.333M5.333 8h21.333M13.333 13.333v8M18.667 13.333v8"></path>
</symbol>
<symbol id="uncheck" viewBox="0 0 32 32">
<path d="M5.333 10.667c0-2.946 2.388-5.333 5.333-5.333v0h10.667c2.946 0 5.333 2.388 5.333 5.333v0 10.667c0 2.946-2.388 5.333-5.333 5.333v0h-10.667c-2.946 0-5.333-2.388-5.333-5.333v0-10.667z"></path>
</symbol>
<symbol id="up" viewBox="0 0 32 32">
<path d="M26.667 20l-10.667-10.667-10.667 10.667"></path>
</symbol>
<symbol id="user" viewBox="0 0 32 32">
<path d="M25.143 27.429v-2.286c0-2.525-2.047-4.571-4.571-4.571v0h-9.143c-2.525 0-4.571 2.047-4.571 4.571v0 2.286M20.571 11.429c0 2.525-2.047 4.571-4.571 4.571s-4.571-2.047-4.571-4.571v0c0-2.525 2.047-4.571 4.571-4.571s4.571 2.047 4.571 4.571v0z"></path>
<path d="M16 0.857c8.363 0 15.143 6.78 15.143 15.143s-6.78 15.143-15.143 15.143c-8.363 0-15.143-6.78-15.143-15.143s6.78-15.143 15.143-15.143z"></path>
</symbol>
<symbol id="logo" viewBox="0 0 185 32">
<path fill="#303030" style="fill: var(--color1, #303030)" d="M3.822 29.358c-2.096-0.286-3.369-1.394-3.822-3.323l0.035-0.392 0.321-0.965c0.12-0.405 0.251-0.798 0.393-1.179 0.143-0.405 0.382-0.761 0.714-1.071 0.072-0.215 0.202-0.536 0.393-0.965 0.215-0.453 0.56-1.119 1.035-2 0.382-0.69 0.679-1.238 0.893-1.642 0.239-0.405 0.43-0.714 0.571-0.929-0.238-0.429-0.571-0.846-0.999-1.25-0.274-0.488-0.609-1.156-0.92-1.836l-0.081-0.198c-0.194-0.46-0.4-1.054-0.575-1.661l-0.031-0.125c-0.025-0.571-0.12-1.154-0.286-1.75l-0.216-0.928c-0.068-0.285-0.106-0.611-0.106-0.947 0-0.006 0-0.012 0-0.018v0.001c-0.102-0.184-0.188-0.398-0.246-0.623l-0.004-0.019 0.072-0.429c0.119-0.191 0.143-0.441 0.071-0.751-0.056-0.386-0.131-0.724-0.227-1.053l0.013 0.053c-0.072-0.309-0.143-0.631-0.215-0.963-0.030-0.207-0.047-0.447-0.047-0.691 0-0.121 0.004-0.242 0.013-0.361l-0.001 0.016c0.023-0.334 0.107-0.655 0.25-0.965 0.167-0.31 0.44-0.571 0.822-0.786l0.357-0.249 0.358 0.214c0.262 0.167 0.511 0.309 0.75 0.429l0.714 0.358c0.286 0.142 0.571 0.297 0.857 0.464 0.286 0.143 0.594 0.309 0.928 0.499l0.358 0.25-0.037 0.393c0.007 0.137 0.060 0.261 0.143 0.357l-0.001-0.001 0.393 0.107 0.037 0.501v0.429c0 0.214 0.011 0.368 0.034 0.464 0.025 0.071 0.072 0.154 0.144 0.249l0.178 0.466c0 0.429 0.035 0.809 0.107 1.143 0.071 0.333 0.154 0.666 0.249 1 0.12 0.333 0.215 0.678 0.286 1.035 0.072 0.334 0.083 0.703 0.037 1.107 0.143-0.072 0.286-0.178 0.429-0.321l0.143-0.144 0.214-0.142 2.501-3.394-0.072-0.427 0.893-0.857c0.239-0.191 0.465-0.382 0.679-0.571 0.215-0.215 0.393-0.453 0.536-0.714l0.215-0.321c1.071-1.429 2.451-2.31 4.142-2.643l0.609-0.144 0.178 0.571c0.119 0.334 0.345 0.631 0.679 0.893 0.357 0.239 0.738 0.477 1.143 0.714l0.392 0.25c0.143 0.286 0.215 0.501 0.215 0.643 0 0.142-0.011 0.262-0.035 0.357l0.178 0.464c-0.263 0.69-0.549 1.191-0.857 1.501-0.309 0.286-0.631 0.56-0.965 0.821-0.262 0.215-0.499 0.429-0.714 0.643-0.203 0.201-0.371 0.438-0.493 0.699l-0.006 0.015-0.286 0.358c-0.595 0.309-0.976 0.761-1.143 1.357l-0.143 0.501h-0.537c-0.023 0-0.083 0.059-0.178 0.178-0.096 0.095-0.239 0.345-0.429 0.75-0.215 0.286-0.369 0.477-0.464 0.571l-0.179 0.178c-0.054 0.136-0.102 0.242-0.154 0.345l0.011-0.024c-0.023 0.096-0.059 0.215-0.107 0.358l-0.214 0.286c-0.187 0.158-0.342 0.348-0.459 0.561l-0.005 0.010c-0.096 0.167-0.202 0.369-0.321 0.607-0.096 0.215-0.203 0.441-0.322 0.679-0.119 0.215-0.286 0.429-0.499 0.643l0.071 0.392-0.286 0.25c-0.2 0.181-0.367 0.394-0.493 0.631l-0.006 0.012c-0.143 0.238-0.286 0.488-0.429 0.75-0.143 0.286-0.297 0.571-0.464 0.857s-0.382 0.547-0.643 0.785c-0.145 0.39-0.301 0.719-0.482 1.033l0.018-0.033c-0.119 0.239-0.334 0.525-0.643 0.857-0.286 1.143-0.963 2.369-2.035 3.679-0.023 0.263-0.107 0.523-0.25 0.786-0.133 0.266-0.263 0.488-0.406 0.7l0.014-0.023c-0.068 0.135-0.128 0.24-0.191 0.343l0.012-0.021-0.106 0.214-0.107 0.393c-0.143 0.262-0.297 0.475-0.465 0.642-0.143 0.167-0.286 0.322-0.429 0.465-0.080 0.055-0.15 0.113-0.214 0.178l-0 0c-0.044 0.067-0.091 0.125-0.143 0.179l0-0-0.607 0.215zM76.066 7.857c0.047 0.523 0.13 0.976 0.249 1.358 0.119 0.381 0.25 0.75 0.393 1.106 0.119 0.334 0.226 0.667 0.321 1 0.119 0.31 0.202 0.69 0.25 1.143-0.151 0.456-0.299 1.032-0.413 1.62l-0.015 0.094c-0.072 0.525-0.154 1.072-0.25 1.643-0.381 0.833-0.75 1.571-1.106 2.214-0.248 0.425-0.534 0.976-0.798 1.539l-0.059 0.14c-0.12 0.119-0.226 0.263-0.322 0.429-0.071 0.143-0.154 0.297-0.249 0.464-0.058 0.089-0.117 0.195-0.171 0.304l-0.008 0.019c-0.049 0.109-0.109 0.203-0.18 0.288l0.001-0.002-0.714-0.251-0.143 0.894-0.501 0.143-0.357 0.429c-0.43 0.758-0.903 1.413-1.438 2.011l0.010-0.011c-0.508 0.528-1.070 0.999-1.678 1.405l-0.037 0.023c-0.619 0.405-1.334 0.786-2.143 1.143-0.786 0.358-1.679 0.75-2.679 1.178-0.318-0.042-0.69-0.068-1.067-0.071l-0.004-0-0.822-0.072c-0.453 0-1.011-0.035-1.679-0.106-0.071-0.191-0.178-0.322-0.321-0.393-0.114-0.063-0.248-0.102-0.392-0.107l-0.002-0c-0.39-0.179-0.707-0.461-0.923-0.813l-0.005-0.009c-0.122-0.224-0.313-0.623-0.496-1.027l-0.076-0.187c-0.136-0.301-0.255-0.535-0.383-0.764l0.026 0.050c-0.15-0.299-0.28-0.533-0.419-0.761l0.026 0.046 0.608-0.179-0.786-0.857c-0.048-0.071-0.107-0.131-0.176-0.177l-0.002-0.001c-0.065-0.064-0.124-0.134-0.175-0.209l-0.003-0.005-0.037-0.571c-0.064-1.333-0.103-2.907-0.106-4.489l-0-0.012c0.023-1.381 0.214-2.607 0.571-3.679v-0.392c0.071-0.525 0.143-0.953 0.214-1.286 0.072-0.358 0.131-0.69 0.178-1 0.072-0.525 0.179-1.013 0.322-1.464 0.333-0.072 0.583-0.203 0.75-0.393 0.167-0.215 0.309-0.405 0.429-0.571 0.334-0.024 0.56 0.023 0.679 0.143 0.119 0.119 0.238 0.309 0.357 0.571 0.119 0.214 0.263 0.453 0.429 0.714 0.191 0.262 0.464 0.464 0.822 0.607 0.048 0.191 0.107 0.393 0.178 0.607 0.096 0.191 0.191 0.405 0.286 0.643 0.169 0.349 0.339 0.774 0.48 1.213l0.020 0.073c0.167 0.429 0.262 0.846 0.286 1.25-0.237 0.451-0.433 0.975-0.562 1.525l-0.009 0.046c-0.119 0.595-0.202 1.203-0.25 1.822-0.023 0.595-0.011 1.178 0.035 1.75 0.072 0.549 0.178 1.013 0.321 1.394l0.215 0.463 0.607-0.071c0.801-0.21 1.444-0.417 2.072-0.654l-0.143 0.047c0.594-0.239 1.143-0.512 1.642-0.822 0.501-0.309 0.976-0.666 1.429-1.072 0.453-0.429 0.929-0.917 1.429-1.463 0.501-0.549 0.929-1.168 1.286-1.858 0.382-0.714 0.69-1.451 0.929-2.214 0.262-0.762 0.453-1.512 0.571-2.25 0.143-0.762 0.238-1.477 0.286-2.143 0.405-0.143 0.607-0.429 0.607-0.857l-0.072-0.393c-0.095-0.143-0.095-0.309 0-0.499 0.144-0.453 0.477-0.798 1.001-1.037 0.381 0.239 0.713 0.501 0.999 0.786 0.31 0.286 0.595 0.571 0.857 0.857zM83.6 24.464c-0.263 0.953-0.501 1.679-0.714 2.179-0.191 0.475-0.488 0.976-0.893 1.499-0.31-0.048-0.525-0.011-0.643 0.107-0.117 0.117-0.245 0.223-0.383 0.315l-0.009 0.006c-0.215 0.048-0.369 0.048-0.465 0s-0.178-0.108-0.249-0.178l0 0c-0.065-0.045-0.158-0.104-0.253-0.161l-0.033-0.018c-0.096-0.047-0.251-0.071-0.465-0.071-0.052-0.209-0.113-0.387-0.187-0.559l0.009 0.023c-0.048-0.167-0.202-0.226-0.464-0.178 0.029-0.094 0.046-0.202 0.046-0.314 0-0.053-0.004-0.105-0.011-0.156l0.001 0.006c-0.020-0.134-0.057-0.254-0.111-0.365l0.003 0.008c-0.029-0.155-0.053-0.263-0.080-0.37l0.010 0.049c-0.007-0.042-0.011-0.091-0.011-0.141 0-0.103 0.017-0.202 0.048-0.294l-0.002 0.006c-0.119 0-0.215-0.083-0.286-0.25-0.087-0.2-0.171-0.364-0.263-0.523l0.013 0.023c0.072-0.429 0.143-0.834 0.215-1.215 0.071-0.381 0.154-0.738 0.25-1.071 0.119-0.334 0.214-0.667 0.286-1 0.022-0.104 0.034-0.223 0.034-0.346 0-0.25-0.052-0.487-0.146-0.702l0.004 0.011c0.095 0.072 0.167 0.061 0.214-0.034 0.049-0.124 0.087-0.27 0.106-0.42l0.001-0.009c0.023-0.19 0.035-0.369 0.035-0.535 0-0.191-0.011-0.346-0.035-0.465 0.238-0.618 0.429-1.249 0.571-1.893 0.167-0.666 0.309-1.321 0.429-1.965 0.143-0.642 0.286-1.273 0.429-1.893 0.15-0.656 0.346-1.228 0.595-1.771l-0.023 0.056c0.263-0.048 0.549-0.011 0.857 0.107 0.334 0.095 0.536 0.226 0.607 0.393 0.632-0.492 1.174-1.056 1.627-1.69l0.017-0.024c0.475-0.691 0.965-1.358 1.464-2 0.496-0.637 1.035-1.199 1.627-1.701l0.016-0.013c0.618-0.501 1.392-0.798 2.32-0.894 0.477 0.358 1.001 0.727 1.573 1.107 0.594 0.358 1.083 0.834 1.464 1.429 0.191 0.095 0.345 0.202 0.464 0.321 0.143 0.096 0.31 0.202 0.501 0.322v0.427c0.286 0.263 0.512 0.571 0.679 0.929 0.19 0.334 0.357 0.703 0.499 1.107 0.143 0.381 0.286 0.774 0.429 1.178 0.143 0.381 0.309 0.75 0.501 1.107-0.042 0.094-0.068 0.204-0.072 0.32l-0 0.001c0 0.072 0.011 0.154 0.035 0.25 0.048 0.095 0.083 0.19 0.107 0.286 0.023 0.095 0.023 0.226 0 0.393-0.072 1.047-0.417 1.893-1.035 2.535-0.611 0.65-1.332 1.188-2.135 1.587l-0.044 0.020c-0.762 0.37-1.674 0.722-2.618 1.003l-0.133 0.034c-0.976 0.286-1.857 0.594-2.642 0.928 0 0.096 0.035 0.143 0.107 0.143 0.095 0 0.13 0.059 0.106 0.179 0.571 0.357 1.024 0.642 1.358 0.857 0.333 0.214 0.642 0.392 0.928 0.535 0.31 0.143 0.631 0.274 0.965 0.393 0.358 0.095 0.846 0.215 1.464 0.358 0.619 0.143 1.096 0.262 1.429 0.357 0.358 0.072 0.679 0.143 0.965 0.215l0.857 0.143c0.309 0.023 0.738 0.059 1.286 0.106 0.215 0.215 0.393 0.477 0.536 0.786 0.167 0.286 0.274 0.583 0.321 0.893 0.048 0.286 0.059 0.571 0.035 0.857-0.014 0.246-0.106 0.468-0.251 0.645l0.002-0.002c0.023 0.071 0.071 0.106 0.143 0.106 0.043-0.011 0.092-0.018 0.143-0.018s0.1 0.006 0.147 0.019l-0.004-0.001c-0.143 0.096-0.263 0.215-0.358 0.358l-0.286 0.429c-0.095 0.143-0.202 0.262-0.321 0.357-0.132 0.123-0.306 0.202-0.498 0.215l-0.002 0c-0.738 0.286-1.666 0.297-2.785 0.035-1.12-0.238-2.536-0.69-4.25-1.358-1.11-0.418-1.805-0.706-2.494-1.008l0.387 0.151c-0.523-0.262-0.987-0.511-1.392-0.75-0.382-0.262-0.738-0.535-1.072-0.821-0.3-0.278-0.672-0.616-1.046-0.952l-0.096-0.085zM88.707 12.215c-0.263 0.381-0.56 0.726-0.893 1.035-0.31 0.309-0.619 0.631-0.929 0.965-0.286 0.309-0.549 0.666-0.786 1.071-0.239 0.39-0.414 0.847-0.496 1.335l-0.003 0.023c0.969-0.123 1.849-0.361 2.675-0.704l-0.068 0.025c0.905-0.382 1.762-0.738 2.571-1.072-0.095-0.738-0.357-1.333-0.785-1.785-0.405-0.453-0.834-0.75-1.286-0.893zM114.875 18.856c0.026-0.103 0.077-0.141 0.154-0.115 0.103 0 0.192-0.013 0.27-0.039-0.206-0.213-0.345-0.491-0.384-0.801l-0.001-0.007c-0.040-0.342-0.179-0.646-0.387-0.888l0.002 0.002c0.051-0.128 0.090-0.257 0.115-0.385 0.051-0.128 0.167-0.179 0.346-0.154-0.032-0.204-0.050-0.438-0.050-0.677 0-0.319 0.032-0.63 0.094-0.931l-0.005 0.030c0.103-0.488 0.256-0.95 0.462-1.386 0.231-0.437 0.488-0.861 0.77-1.271 0.309-0.437 0.603-0.873 0.886-1.309 0.231-0.051 0.373-0.026 0.424 0.077 0.050 0.077 0.141 0.051 0.269-0.077 0.411-0.282 0.694-0.591 0.848-0.925 0.153-0.359 0.231-0.744 0.231-1.154 0.231-0.669 0.487-1.322 0.77-1.965 0.328-0.713 0.675-1.319 1.067-1.891l-0.028 0.043c0.385-0.565 0.795-1.053 1.232-1.463 0.401-0.408 0.872-0.744 1.396-0.989l0.029-0.012c0.359-0.309 0.808-0.591 1.347-0.848 0.507-0.237 1.099-0.436 1.716-0.567l0.055-0.010c0.587-0.147 1.26-0.231 1.953-0.231 0.004 0 0.007 0 0.011 0h-0.001c0.090-0.005 0.195-0.007 0.3-0.007 0.55 0 1.083 0.073 1.59 0.209l-0.043-0.010c0.129 0.051 0.206 0.026 0.232-0.077 0.025-0.128 0.089-0.193 0.192-0.193 1.283 0.154 2.426 0.411 3.427 0.77 1.026 0.36 1.899 0.861 2.618 1.502 0.442 0.687 0.903 1.507 1.319 2.353l0.066 0.15c0.437 0.873 0.77 1.797 1.001 2.773 0.223 0.801 0.352 1.721 0.352 2.671 0 0.103-0.002 0.206-0.005 0.309l0-0.015c-0.036 1.118-0.273 2.172-0.677 3.139l0.022-0.059c-0.891 1.116-1.979 2.032-3.218 2.707l-0.055 0.028c-1.171 0.621-2.548 1.195-3.981 1.645l-0.178 0.048c-1.463 0.437-2.99 0.795-4.582 1.078-1.566 0.282-3.093 0.591-4.582 0.925 0.025 0.693 0.025 1.438 0 2.233-0.031 0.852-0.128 1.659-0.286 2.445l0.016-0.096c-0.146 0.861-0.36 1.624-0.644 2.353l0.028-0.081c-0.277 0.794-0.642 1.482-1.094 2.103l0.016-0.023c-0.076-0.003-0.164-0.005-0.254-0.005-0.484 0-0.954 0.058-1.404 0.167l0.041-0.008c-0.539 0.128-1.027 0.257-1.464 0.385l-0.616-0.385c-0.201-0.108-0.437-0.177-0.688-0.192l-0.005-0c0.077-0.309 0-0.629-0.231-0.963-0.206-0.334-0.424-0.654-0.655-0.962-0.179-0.277-0.324-0.597-0.418-0.938l-0.006-0.024c-0.051-0.334 0.103-0.629 0.463-0.886-0.206-0.179-0.309-0.462-0.309-0.847 0.103 0.103 0.231 0.153 0.385 0.153-0.051-0.462 0-1.014 0.154-1.655 0.179-0.642 0.32-1.271 0.423-1.887 0.129-0.642 0.154-1.219 0.078-1.733-0.078-0.539-0.385-0.925-0.925-1.155zM124.887 9.846c-0.103 0.282-0.193 0.539-0.27 0.77-0.051 0.206-0.115 0.398-0.192 0.577-0.094 0.217-0.184 0.394-0.284 0.565l0.014-0.026c-0.078 0.179-0.167 0.385-0.27 0.617 0.052 0.154 0.163 0.276 0.304 0.344l0.004 0.002c0.146 0.069 0.257 0.192 0.307 0.343l0.001 0.004c0.359-0.181 0.719-0.309 1.078-0.385 0.36-0.103 0.719-0.179 1.079-0.231 0.359-0.051 0.719-0.115 1.078-0.193 0.359-0.077 0.731-0.206 1.117-0.385 0.338-0.162 0.735-0.307 1.149-0.413l0.046-0.010c0.994-0.276 1.417-0.408 1.839-0.543l-0.569 0.157c0.411-0.129 0.809-0.27 1.194-0.423 0.385-0.181 0.719-0.411 1.001-0.694-0.36-0.334-0.898-0.629-1.617-0.886-0.693-0.251-1.494-0.416-2.327-0.462l-0.022-0.001c-0.224-0.022-0.485-0.034-0.748-0.034-0.622 0-1.227 0.069-1.81 0.198l0.055-0.010c-0.841 0.183-1.572 0.575-2.16 1.119l0.003-0.003zM159.849 8.037c0.025 0.179 0.025 0.32 0 0.423-0.001 0.083-0.015 0.162-0.040 0.236l0.002-0.005v0.27c0 0.078 0.025 0.206 0.077 0.385-0.538 0.873-1.168 1.477-1.887 1.81-0.653 0.295-1.414 0.535-2.208 0.683l-0.063 0.010c-0.822 0.128-1.669 0.27-2.542 0.423-0.847 0.155-1.694 0.489-2.542 1.002-0.334-0.129-0.641-0.129-0.923 0-0.257 0.128-0.642 0.167-1.155 0.114-0.158 0.155-0.351 0.274-0.567 0.345l-0.010 0.003c-0.284 0.063-0.516 0.129-0.743 0.207l0.049-0.015c0.103 0.232 0.142 0.475 0.115 0.731 0 0.232 0.039 0.424 0.115 0.578 0.379 0.031 0.821 0.049 1.267 0.049 0.598 0 1.189-0.032 1.771-0.094l-0.072 0.006c1.103-0.103 2.182-0.167 3.234-0.192 0.025 0.128 0.013 0.217-0.039 0.27-0.051 0.025-0.064 0.089-0.039 0.192 0.181 0.128 0.36 0.295 0.539 0.501l0.539 0.539c0.179 0.179 0.359 0.334 0.538 0.462 0.206 0.103 0.437 0.142 0.694 0.115 0.103 0.206 0.167 0.437 0.192 0.694 0.016 0.073 0.025 0.158 0.025 0.244 0 0.176-0.037 0.344-0.104 0.495l0.003-0.008c-0.41 0.282-0.822 0.577-1.232 0.886-0.411 0.282-0.847 0.538-1.31 0.77-0.404 0.217-0.876 0.413-1.368 0.563l-0.056 0.015c-0.403 0.104-0.865 0.163-1.342 0.163-0.111 0-0.22-0.003-0.329-0.010l0.015 0.001h-0.309c-0.050 0-0.128-0.039-0.231-0.115-0.205 0.128-0.501 0.167-0.886 0.114-0.359-0.050-0.641-0.011-0.847 0.117-0.282-0.129-0.629-0.179-1.039-0.154-0.385 0-0.733-0.051-1.040-0.154-0.386 0.503-0.756 1.069-1.082 1.664l-0.035 0.069c-0.334 0.617-0.63 1.271-0.886 1.965 0.873 0.128 1.591 0.179 2.157 0.153 0.59-0.025 1.142-0.064 1.655-0.114 0.514-0.078 1.040-0.142 1.579-0.194 0.538-0.077 1.219-0.102 2.040-0.077 0.514-0.282 1.117-0.462 1.81-0.538 0.739-0.102 1.402-0.263 2.037-0.484l-0.074 0.022c0.206 0.077 0.385 0.217 0.539 0.423 0.154 0.179 0.295 0.359 0.423 0.539 0.154 0.154 0.309 0.295 0.463 0.423 0.125 0.102 0.286 0.163 0.462 0.163 0.041 0 0.081-0.003 0.119-0.010l-0.004 0.001c0.1 0.101 0.17 0.234 0.192 0.381l0 0.004c0.051 0.128 0.090 0.257 0.117 0.385 0.025 0.128 0.064 0.243 0.115 0.346 0.077 0.078 0.192 0.103 0.346 0.078-0.385 0.846-0.834 1.502-1.347 1.963-0.477 0.426-1.040 0.766-1.659 0.99l-0.036 0.011c-0.641 0.231-1.36 0.411-2.155 0.538-0.77 0.129-1.631 0.282-2.581 0.463-0.231 0.051-0.423 0.039-0.577-0.039-0.152-0.049-0.326-0.077-0.507-0.077-0.011 0-0.023 0-0.034 0l0.002-0c-0.59 0.128-1.296 0.243-2.118 0.346s-1.656 0.141-2.503 0.115c-0.872-0.024-1.704-0.148-2.5-0.363l0.074 0.017c-0.77-0.181-1.399-0.514-1.887-1.001-0.191-0.161-0.337-0.37-0.421-0.607l-0.003-0.010c-0.051-0.256-0.218-0.448-0.501-0.577-0.035-0.425-0.090-0.807-0.165-1.182l0.011 0.065c-0.077-0.411-0.153-0.834-0.231-1.27-0.054-0.285-0.121-0.745-0.178-1.209l-0.014-0.14c-0.026-0.437 0-0.834 0.077-1.193 0.078-0.385 0.231-0.731 0.462-1.040 0.257-0.309 0.347-0.641 0.27-1.001 0.129-0.025 0.206-0.089 0.231-0.192 0.026-0.129 0.129-0.179 0.309-0.154 0.154-0.462 0.321-0.898 0.501-1.309 0.179-0.411 0.359-0.809 0.539-1.194 0.205-0.385 0.398-0.77 0.577-1.154 0.206-0.411 0.398-0.861 0.577-1.349-0.331-0.299-0.602-0.656-0.799-1.057l-0.009-0.021c-0.132-0.333-0.251-0.733-0.338-1.145l-0.009-0.050c-0.078-0.411-0.142-0.821-0.193-1.232-0.059-0.493-0.154-0.936-0.284-1.364l0.015 0.056c0.257-0.385 0.565-0.694 0.925-0.925 0.355-0.24 0.762-0.448 1.193-0.604l0.039-0.012c0.39-0.142 0.868-0.275 1.359-0.374l0.067-0.011c0.513-0.103 1.053-0.217 1.617-0.346 0.677-0.24 1.591-0.504 2.522-0.727l0.212-0.043c0.822-0.179 1.617-0.32 2.387-0.423 0.467-0.088 1.308-0.21 2.154-0.316l0.31-0.032c0.847-0.103 1.809-0.256 2.888-0.462 0.231 0.231 0.449 0.346 0.655 0.346 0.102-0.231 0.217-0.295 0.346-0.192 0.153 0.077 0.218 0 0.192-0.231 0.257 0.435 0.578 0.808 0.962 1.117 0.411 0.282 0.861 0.526 1.349 0.731z"></path>
<path fill="#303030" style="fill: var(--color1, #303030)" d="M180.833 11.193c-0.641 0-1.334 0.051-2.079 0.154-0.744 0.078-1.475 0.167-2.194 0.27-0.513 0.077-1.014 0.142-1.502 0.193-0.463 0.050-0.886 0.089-1.271 0.114-0.179 0.566-0.359 1.066-0.539 1.503-0.225 0.55-0.418 0.967-0.626 1.376l0.049-0.107c-0.206 0.437-0.398 0.886-0.577 1.349-0.154 0.435-0.309 0.911-0.463 1.424-0.256 0.411-0.474 0.795-0.655 1.154-0.152 0.328-0.284 0.714-0.376 1.116l-0.008 0.041c-0.309 0.385-0.539 0.795-0.694 1.232-0.154 0.411-0.27 0.77-0.346 1.078l-0.154 0.462c-0.154 0.154-0.243 0.282-0.27 0.385-0.040 0.097-0.107 0.176-0.19 0.231l-0.002 0.001c-0.034 0.315-0.13 0.602-0.275 0.856l0.006-0.011c-0.046 0.109-0.086 0.239-0.113 0.372l-0.002 0.014c-0.020 0.068-0.034 0.147-0.039 0.228l-0 0.003c0 0.256-0.064 0.423-0.192 0.501 0.025 0.128 0.025 0.27 0 0.423l-0.078 0.385c-0.077 0.309-0.102 0.552-0.077 0.731 0.077 0.103 0.142 0.193 0.192 0.27 0.079 0.082 0.134 0.188 0.154 0.305l0 0.003c0.154 0.103 0.27 0.167 0.346 0.192 0.103 0.078 0.257 0.167 0.463 0.27l0.346 0.385c0.128 0.744 0.013 1.335-0.346 1.771-0.385 0.487-1.040 0.731-1.963 0.731h-0.463c-0.128-0.128-0.205-0.231-0.231-0.309-0.206-0.077-0.373-0.141-0.501-0.192-0.146-0.067-0.264-0.173-0.344-0.305l-0.002-0.003c-0.457-0.205-0.723-0.333-0.987-0.466l0.177 0.081-0.346-0.192v-0.462c-0.173-0.221-0.316-0.476-0.418-0.751l-0.006-0.020c-0.061-0.208-0.128-0.494-0.182-0.783l-0.010-0.064c-0.057-0.258-0.123-0.477-0.203-0.689l0.011 0.034c-0.050-0.205-0.13-0.385-0.236-0.546l0.004 0.006c-0.050-1.489 0.090-2.746 0.424-3.774 0.463-1.456 0.816-2.439 1.192-3.411l-0.152 0.447 0.616-1.539c0.205-0.539 0.385-1.091 0.538-1.657l0.347-0.384c0.179-0.411 0.32-0.744 0.423-1.001l0.385-0.847c0.078-0.179 0.142-0.346 0.193-0.501 0.077-0.181 0.141-0.334 0.192-0.463-0.005-0-0.010-0-0.016-0-0.144 0-0.285 0.014-0.421 0.041l0.014-0.002c-0.129 0-0.257 0.013-0.385 0.039-0.154 0.025-0.296 0.051-0.424 0.077h-0.385c-0.179 0-0.307-0.013-0.385-0.039-0.265 0.122-0.575 0.193-0.902 0.193-0.008 0-0.015-0-0.023-0h-0.616c-0.044-0.024-0.097-0.038-0.153-0.039h-0c-0.257 0-0.463 0.039-0.616 0.115h-1.271c-0.070 0.003-0.136 0.017-0.198 0.040l0.004-0.001h-0.192c-0.179 0-0.373-0.013-0.577-0.039-0.249-0.067-0.467-0.159-0.668-0.277l0.013 0.007c-0.309-0.41-0.513-0.629-0.616-0.654l-0.346-0.462c-0.027-0.16-0.067-0.303-0.122-0.438l0.005 0.014c-0.026-0.065-0.079-0.232-0.128-0.4l-0.025-0.101c-0.103-0.257-0.206-0.526-0.309-0.809-0.074-0.305-0.116-0.655-0.116-1.014 0-0.022 0-0.044 0-0.067l-0 0.003c0.026-0.206 0.077-0.359 0.154-0.462 0.077-0.103 0.141-0.193 0.192-0.27l0.115-0.577 0.501 0.038h1.079c0.821 0 1.655-0.025 2.503-0.077 0.847-0.078 1.72-0.154 2.618-0.231l1.539-0.154c0.539-0.051 1.091-0.103 1.656-0.154 0.103-0.231 0.206-0.449 0.309-0.655l0.385-0.192c0.462-0.026 0.783 0.039 0.962 0.192 0.205 0.129 0.371 0.257 0.501 0.385l1.694-0.153c0.825-0.106 1.428-0.2 2.027-0.308l-0.256 0.038c0.385-0.072 1.28-0.195 2.179-0.304l0.439-0.043c0.898-0.103 1.759-0.153 2.579-0.153 0.36 0 0.706 0.011 1.040 0.038s0.642 0.065 0.925 0.115l0.385 0.27c0.077 0.154 0.179 0.296 0.307 0.423l0.462 0.386c0.309 0.282 0.616 0.616 0.925 1.001 0.307 0.385 0.424 0.949 0.346 1.694-0.206 0.309-0.359 0.488-0.462 0.539l-0.346 0.462-0.385-0.038c-0.004-0-0.009-0-0.015-0-0.147 0-0.288 0.028-0.417 0.079l0.008-0.003c-0.148 0.030-0.277 0.070-0.4 0.121l0.015-0.005-0.307 0.154c-0.103 0.025-0.218 0.051-0.347 0.077h-0.577c-0.123-0.025-0.264-0.039-0.408-0.039-0.005 0-0.011 0-0.016 0h0.001z"></path>
<path fill="#ffc107" style="fill: var(--color2, #ffc107)" d="M34.8 12.551c2.181 1.017 4.898-0.177 6.057-2.662l0.059-0.127c1.123-2.409 1.786-3.829-0.358-4.829-0.48-0.218-1.044-0.406-1.631-0.535l-0.059-0.011-0.026-0.026-0.057 0.009c-2.305-0.48-4.93-0.123-5.84 1.83-1.159 2.486-0.328 5.334 1.854 6.351zM34.329 7.441c0.674-0.295 1.608-0.461 2.8-0.223 1.026 0.206 1.861 0.189 2.503 0.072 0.005 0.076 0.009 0.164 0.009 0.253 0 0.585-0.134 1.139-0.373 1.632l0.010-0.022c-0.752 1.615-2.432 2.431-3.742 1.819-1.176-0.549-1.662-2.061-1.207-3.531zM29.352 11.662c-0.766 0.783-1.753 1.176-2.777 1.104-0.331-0.023-1.071-0.391-1.543-0.626-0.016-0.012-0.115-0.062-0.215-0.11l-0.087-0.038c-1.433-0.669-1.723-1.855-1.597-3.714 0.163-2.335 1.969-4.118 4.026-3.975 0.963 0.065 1.478 0.766 2.079 1.583l0.114 0.154c0.059 0.082 0.121 0.163 0.183 0.245 0.567 0.754 1.135 1.511 1.066 2.507-0.077 1.105-0.52 2.125-1.25 2.871zM27.041 6.039c-1.101-0.077-2.073 0.982-2.169 2.358-0.094 1.375 0.725 2.557 1.824 2.632 0.506 0.034 1.008-0.173 1.411-0.585 0.441-0.45 0.709-1.080 0.758-1.771 0.047-0.693-0.133-1.353-0.507-1.859-0.192-0.265-0.441-0.477-0.731-0.619l-0.012-0.005c-0.168-0.081-0.363-0.134-0.568-0.149l-0.005-0zM36.605 14.263l0.043 0.019c-0.94-0.449-1.992-0.7-3.103-0.7-1.436 0-2.775 0.42-3.87 1.128l-5.062 3.205c-0.807 0.515-1.441 1.278-1.806 2.212l0.011-0.031c-0.206 0.519-0.319 1.084-0.319 1.676 0 0.437 0.062 0.859 0.169 1.227l0.008 0.032c0.267 0.943 0.83 1.762 1.593 2.357l-0.010-0.007c0.751 0.591 1.692 0.95 2.721 0.971l0.064 0.002 0.014 0c2.573 0.081 4.874 1.241 6.473 3.053l0.004 0.005c0.629 0.717 1.48 1.235 2.476 1.452l-0.030-0.006c0.321 0.072 0.655 0.11 0.997 0.11 0.686 0 1.337-0.152 1.893-0.413l0.028-0.012c0.877-0.404 1.603-1.080 2.084-1.941l-0.012 0.023c0.372-0.659 0.584-1.421 0.584-2.232 0-0.218-0.015-0.433-0.042-0.618l-0.795-5.917-0.004-0.037c-0.334-2.455-1.905-4.518-4.108-5.557zM39.669 25.121c-2.739-1.088-6.785-1.893-7.115 1.173-1.568-1.013-3.473-1.634-5.519-1.684l-0.013-0-0.043-0.001c-1.256-0.042-2.301-0.899-2.626-2.057l-0.005-0.020c-0.067-0.23-0.106-0.493-0.106-0.766 0-0.899 0.42-1.699 1.075-2.216l0.006-0.005c0.647-0.457 1.713-0.654 3.809 0.246 3.2 1.371 3.238-0.571 2.286-1.714 1.143 0 3.543-0.343 4-1.714 0.087-0.263 0.106-0.487 0.075-0.679 1.868 0.716 3.225 2.375 3.497 4.379l0.003 0.028 0.677 5.031zM43.389 17.545c-0.362-0.171-0.673-0.385-0.943-0.642l0.002 0.002c-1.606-1.518-1.509-4.238 0.217-6.064 0.817-0.865 1.881-1.409 2.997-1.53 0.768-0.083 0.939 0.195 1.195 0.611 0.133 0.216 0.288 0.469 0.56 0.725 0.229 0.217 0.531 0.429 0.846 0.648 0.781 0.546 1.631 1.139 1.589 1.976-0.058 1.12-0.542 2.213-1.36 3.078-1.421 1.504-3.511 1.939-5.102 1.197zM45.849 11.042c-0.704 0.077-1.385 0.43-1.92 0.994-1.065 1.129-1.31 3.298-0.401 4.157 0.909 0.859 2.362 0.557 3.429-0.571 0.534-0.565 1.117-1.735 1.154-2.441 0.034-0.655-0.179-1.234-0.6-1.631-0.421-0.398-1.011-0.578-1.662-0.507zM49.466 20.537c-1.229-1.889-3.423-1.863-5.479-0.746-2.055 1.117-2.662 2.877-1.678 4.689 0.358 0.662 0.914 1.158 1.577 1.466 1.154 0.537 2.631 0.509 3.938-0.2 2.055-1.117 2.625-3.397 1.641-5.209zM46.994 24.215c-1.214 0.658-2.629 0.405-3.154-0.566-0.385-0.71-0.189-1.611 0.422-2.301 1.232-0.209 2.791-0.402 3.808-0.335 0.063 0.077 0.12 0.16 0.168 0.251 0.526 0.968-0.033 2.293-1.243 2.95z"></path>
</symbol>
<symbol id="logo-small" viewBox="0 0 186 32">
<path fill="#303030" style="fill: var(--color1, #303030)" d="M4.050 29.357c-2.096-0.285-3.37-1.392-3.821-3.322l0.035-0.392 0.32-0.965c0.12-0.405 0.251-0.797 0.394-1.178 0.155-0.425 0.399-0.784 0.713-1.070l0.002-0.002c0.070-0.214 0.202-0.536 0.392-0.965 0.214-0.451 0.56-1.12 1.037-2 0.381-0.69 0.678-1.238 0.893-1.642 0.237-0.405 0.429-0.715 0.571-0.928-0.279-0.481-0.611-0.893-0.996-1.248l-0.004-0.003c-0.381-0.715-0.715-1.392-1-2.035-0.194-0.461-0.401-1.055-0.577-1.662l-0.031-0.125c-0.030-0.634-0.132-1.232-0.298-1.803l0.014 0.054-0.214-0.928c-0.068-0.286-0.107-0.614-0.107-0.951 0-0.005 0-0.009 0-0.014v0.001c-0.102-0.185-0.188-0.399-0.247-0.624l-0.004-0.019 0.070-0.429c0.12-0.19 0.144-0.44 0.072-0.75-0.056-0.387-0.131-0.724-0.228-1.053l0.013 0.053c-0.072-0.309-0.144-0.63-0.214-0.963-0.029-0.205-0.046-0.442-0.046-0.682 0-0.125 0.004-0.248 0.013-0.371l-0.001 0.016c0.026-0.354 0.115-0.682 0.257-0.98l-0.007 0.017c0.166-0.31 0.44-0.573 0.821-0.786l0.358-0.251 0.357 0.214c0.261 0.166 0.512 0.31 0.75 0.429l0.714 0.357c0.286 0.144 0.571 0.298 0.858 0.464 0.285 0.144 0.595 0.31 0.928 0.501l0.357 0.25-0.035 0.394c0.007 0.138 0.060 0.261 0.145 0.357l-0.001-0.001 0.392 0.107 0.035 0.499v0.429c0 0.214 0.013 0.368 0.035 0.464 0.037 0.096 0.086 0.179 0.145 0.253l-0.001-0.002 0.178 0.464c0 0.429 0.037 0.81 0.107 1.142 0.072 0.334 0.155 0.667 0.251 1 0.118 0.334 0.213 0.678 0.285 1.035 0.072 0.334 0.083 0.704 0.035 1.107 0.165-0.087 0.306-0.194 0.428-0.32l0-0 0.144-0.144 0.213-0.142 2.501-3.392-0.072-0.429 0.893-0.858c0.24-0.192 0.464-0.381 0.678-0.571 0.214-0.214 0.394-0.453 0.536-0.715l0.214-0.32c1.072-1.429 2.453-2.31 4.144-2.643l0.606-0.144 0.179 0.571c0.118 0.334 0.344 0.632 0.678 0.894 0.357 0.237 0.738 0.475 1.142 0.714l0.392 0.25c0.144 0.286 0.214 0.501 0.214 0.643 0 0.144-0.011 0.262-0.035 0.357l0.179 0.464c-0.262 0.691-0.547 1.19-0.858 1.501-0.309 0.285-0.63 0.56-0.965 0.821-0.259 0.212-0.492 0.423-0.714 0.644l0-0c-0.204 0.201-0.372 0.438-0.495 0.7l-0.006 0.015-0.285 0.357c-0.595 0.309-0.976 0.762-1.142 1.357l-0.144 0.499h-0.536c-0.022 0-0.083 0.061-0.178 0.179-0.096 0.096-0.238 0.346-0.429 0.75-0.214 0.285-0.368 0.475-0.464 0.571l-0.179 0.179c-0.048 0.118-0.096 0.224-0.144 0.32-0.040 0.156-0.076 0.276-0.116 0.394l0.011-0.035-0.214 0.285c-0.214 0.192-0.368 0.381-0.464 0.571-0.096 0.168-0.203 0.37-0.322 0.608-0.096 0.214-0.203 0.44-0.322 0.678-0.142 0.245-0.308 0.457-0.499 0.643l-0.001 0.001 0.070 0.392-0.285 0.251c-0.2 0.18-0.367 0.392-0.495 0.629l-0.006 0.012c-0.144 0.24-0.285 0.488-0.429 0.75-0.142 0.286-0.298 0.571-0.464 0.858-0.18 0.301-0.393 0.559-0.64 0.781l-0.003 0.003c-0.166 0.43-0.32 0.763-0.464 1.002-0.184 0.327-0.397 0.609-0.644 0.858l0-0c-0.285 1.142-0.963 2.368-2.035 3.678-0.031 0.292-0.12 0.558-0.255 0.794l0.005-0.010c-0.12 0.24-0.25 0.464-0.394 0.68-0.048 0.096-0.107 0.202-0.178 0.32l-0.107 0.216-0.107 0.392c-0.144 0.262-0.298 0.477-0.464 0.643-0.144 0.166-0.288 0.32-0.429 0.464-0.080 0.055-0.15 0.114-0.214 0.179l-0 0c-0.044 0.067-0.092 0.125-0.144 0.178l0-0-0.606 0.214zM76.294 7.856c0.048 0.525 0.131 0.976 0.25 1.358 0.118 0.381 0.25 0.75 0.392 1.107 0.12 0.333 0.227 0.667 0.322 1 0.12 0.309 0.203 0.691 0.251 1.142-0.192 0.619-0.334 1.19-0.429 1.715-0.072 0.523-0.155 1.072-0.25 1.642-0.382 0.834-0.752 1.573-1.107 2.214-0.358 0.643-0.643 1.203-0.858 1.68-0.123 0.124-0.229 0.264-0.316 0.417l-0.005 0.010c-0.072 0.144-0.155 0.298-0.25 0.464-0.048 0.072-0.107 0.179-0.179 0.322-0.049 0.109-0.109 0.204-0.181 0.288l0.001-0.002-0.714-0.25-0.144 0.893-0.499 0.144-0.357 0.427c-0.453 0.786-0.928 1.453-1.429 2-0.508 0.528-1.069 0.999-1.677 1.406l-0.037 0.023c-0.609 0.399-1.313 0.781-2.049 1.105l-0.095 0.038c-0.032 0.055-0.914 0.451-1.8 0.838l-0.878 0.341c-0.319-0.042-0.69-0.068-1.067-0.072l-0.005-0-0.821-0.072c-0.451 0-1.011-0.035-1.678-0.107-0.054-0.17-0.168-0.307-0.317-0.39l-0.003-0.002c-0.114-0.063-0.249-0.102-0.392-0.107l-0.002-0c-0.39-0.179-0.707-0.462-0.923-0.813l-0.005-0.009c-0.123-0.226-0.314-0.624-0.497-1.027l-0.075-0.186c-0.135-0.302-0.255-0.537-0.383-0.766l0.026 0.050c-0.15-0.299-0.28-0.533-0.419-0.761l0.027 0.047 0.606-0.179-0.786-0.858c-0.048-0.071-0.108-0.13-0.177-0.176l-0.002-0.001c-0.065-0.064-0.123-0.134-0.174-0.209l-0.003-0.005-0.037-0.571c-0.065-1.332-0.104-2.906-0.107-4.488l-0-0.013c0.024-1.381 0.214-2.608 0.573-3.678v-0.392c0.070-0.525 0.142-0.954 0.214-1.286 0.070-0.357 0.13-0.691 0.178-1 0.072-0.523 0.179-1.011 0.322-1.464 0.333-0.072 0.584-0.203 0.75-0.394 0.166-0.214 0.309-0.405 0.429-0.571 0.333-0.024 0.56 0.024 0.678 0.144 0.118 0.118 0.238 0.309 0.357 0.571 0.172 0.307 0.314 0.54 0.462 0.768l-0.033-0.055c0.19 0.262 0.464 0.464 0.821 0.608 0.048 0.19 0.107 0.392 0.179 0.606 0.096 0.19 0.19 0.405 0.285 0.643 0.192 0.405 0.358 0.832 0.501 1.285 0.166 0.429 0.262 0.846 0.285 1.251-0.237 0.451-0.427 0.976-0.571 1.571-0.108 0.511-0.197 1.134-0.246 1.768l-0.003 0.053c-0.024 0.595-0.011 1.179 0.035 1.75 0.072 0.547 0.179 1.011 0.322 1.392l0.214 0.464 0.608-0.070c0.714-0.192 1.357-0.394 1.928-0.608 0.595-0.237 1.142-0.512 1.643-0.821 0.499-0.309 0.976-0.667 1.429-1.072 0.451-0.427 0.928-0.915 1.429-1.464 0.499-0.547 0.928-1.166 1.285-1.856 0.381-0.715 0.691-1.453 0.928-2.214 0.262-0.763 0.453-1.512 0.573-2.251 0.122-0.598 0.223-1.332 0.281-2.077l0.004-0.066c0.355-0.102 0.61-0.423 0.61-0.804 0-0.019-0.001-0.037-0.002-0.056l0 0.002-0.072-0.392c-0.096-0.144-0.096-0.31 0-0.501 0.144-0.451 0.477-0.797 1-1.035 0.381 0.238 0.714 0.501 1 0.786 0.309 0.286 0.595 0.571 0.858 0.858zM83.829 24.464c-0.262 0.954-0.501 1.68-0.715 2.179-0.19 0.475-0.488 0.976-0.893 1.499-0.309-0.048-0.523-0.011-0.643 0.107-0.117 0.117-0.245 0.223-0.383 0.316l-0.009 0.006c-0.214 0.048-0.368 0.048-0.464 0s-0.18-0.107-0.251-0.178l0 0c-0.065-0.044-0.158-0.104-0.252-0.161l-0.033-0.018c-0.118-0.047-0.255-0.074-0.398-0.074-0.023 0-0.046 0.001-0.070 0.002l0.003-0c-0.048-0.19-0.107-0.368-0.179-0.534-0.048-0.168-0.203-0.227-0.464-0.179 0.029-0.094 0.046-0.201 0.046-0.313 0-0.053-0.004-0.106-0.011-0.157l0.001 0.006c-0.020-0.134-0.057-0.254-0.111-0.366l0.003 0.008c-0.029-0.154-0.054-0.261-0.081-0.368l0.010 0.048c-0.007-0.042-0.011-0.091-0.011-0.141 0-0.103 0.017-0.202 0.048-0.294l-0.002 0.006c-0.12 0-0.214-0.083-0.286-0.251-0.086-0.2-0.17-0.364-0.262-0.522l0.012 0.023c0.072-0.429 0.144-0.832 0.214-1.214 0.072-0.381 0.155-0.738 0.25-1.072 0.12-0.333 0.214-0.666 0.286-0.998 0.022-0.104 0.034-0.224 0.034-0.346 0-0.25-0.052-0.487-0.146-0.702l0.004 0.011c0.096 0.072 0.166 0.059 0.214-0.035 0.048-0.12 0.083-0.262 0.107-0.429 0.024-0.192 0.035-0.368 0.035-0.536 0-0.19-0.011-0.346-0.035-0.464 0.237-0.619 0.429-1.25 0.571-1.893 0.166-0.667 0.309-1.322 0.429-1.965 0.142-0.643 0.285-1.274 0.429-1.893 0.15-0.655 0.346-1.227 0.594-1.77l-0.023 0.057c0.072-0.011 0.154-0.018 0.239-0.018 0.223 0 0.435 0.046 0.628 0.129l-0.010-0.004c0.334 0.096 0.536 0.226 0.608 0.392 0.619-0.475 1.168-1.046 1.643-1.714 0.475-0.691 0.963-1.357 1.464-2 0.496-0.638 1.035-1.2 1.627-1.702l0.016-0.013c0.619-0.499 1.392-0.797 2.32-0.893 0.477 0.358 1 0.726 1.573 1.107 0.595 0.358 1.083 0.834 1.464 1.429 0.19 0.096 0.346 0.203 0.464 0.322 0.144 0.096 0.31 0.203 0.501 0.322v0.429c0.285 0.262 0.512 0.571 0.678 0.928 0.19 0.334 0.357 0.704 0.499 1.107 0.144 0.381 0.286 0.774 0.429 1.179 0.144 0.381 0.31 0.75 0.501 1.107-0.042 0.094-0.068 0.204-0.072 0.319l-0 0.001c0 0.072 0.011 0.155 0.035 0.251 0.048 0.096 0.083 0.19 0.107 0.285 0.012 0.059 0.018 0.127 0.018 0.197s-0.007 0.138-0.019 0.204l0.001-0.007c-0.070 1.048-0.416 1.893-1.035 2.536-0.612 0.65-1.333 1.188-2.135 1.587l-0.044 0.020c-0.856 0.405-1.773 0.75-2.749 1.037-0.976 0.285-1.858 0.595-2.643 0.928 0 0.096 0.035 0.144 0.107 0.144 0.096 0 0.13 0.059 0.107 0.176 0.571 0.358 1.024 0.645 1.357 0.859 0.333 0.213 0.643 0.392 0.928 0.534 0.31 0.144 0.632 0.274 0.965 0.394 0.357 0.096 0.845 0.214 1.464 0.357 0.689 0.151 1.168 0.274 1.643 0.409l-0.214-0.052c0.357 0.072 0.678 0.144 0.965 0.214l0.856 0.144c0.31 0.022 0.739 0.059 1.286 0.106 0.214 0.216 0.392 0.477 0.536 0.787 0.166 0.285 0.272 0.582 0.32 0.893 0.048 0.285 0.061 0.571 0.037 0.856-0.014 0.246-0.106 0.468-0.251 0.645l0.002-0.002c0.022 0.072 0.070 0.107 0.142 0.107 0.043-0.011 0.092-0.018 0.142-0.018s0.1 0.006 0.146 0.019l-0.004-0.001c-0.142 0.095-0.261 0.214-0.354 0.352l-0.003 0.005-0.285 0.429c-0.091 0.137-0.197 0.255-0.319 0.355l-0.003 0.002c-0.132 0.123-0.306 0.202-0.498 0.214l-0.002 0c-0.738 0.286-1.666 0.298-2.784 0.037-1.12-0.24-2.538-0.691-4.251-1.358-1.109-0.417-1.805-0.705-2.494-1.007l0.386 0.151c-0.599-0.296-1.055-0.546-1.501-0.81l0.109 0.060c-0.405-0.279-0.755-0.548-1.089-0.835l0.017 0.014c-0.3-0.277-0.671-0.616-1.046-0.952l-0.097-0.085zM88.934 12.214c-0.261 0.381-0.56 0.726-0.893 1.035-0.309 0.31-0.618 0.632-0.928 0.965-0.288 0.315-0.547 0.666-0.768 1.043l-0.016 0.029c-0.24 0.381-0.406 0.832-0.501 1.357 0.969-0.123 1.849-0.361 2.675-0.704l-0.068 0.025c0.906-0.381 1.762-0.739 2.571-1.072-0.096-0.738-0.357-1.333-0.784-1.786-0.406-0.453-0.835-0.75-1.288-0.893zM115.104 18.856c0.024-0.102 0.075-0.141 0.154-0.115 0.102 0 0.192-0.013 0.269-0.038-0.206-0.214-0.345-0.493-0.383-0.803l-0.001-0.007c-0.040-0.342-0.179-0.645-0.387-0.887l0.002 0.002c0.051-0.128 0.090-0.256 0.115-0.384 0.051-0.13 0.166-0.181 0.346-0.155-0.032-0.203-0.050-0.437-0.050-0.675 0-0.32 0.033-0.633 0.095-0.934l-0.005 0.030c0.102-0.488 0.256-0.949 0.461-1.386 0.232-0.437 0.488-0.861 0.771-1.27 0.307-0.437 0.603-0.874 0.885-1.309 0.232-0.053 0.373-0.026 0.424 0.077 0.051 0.077 0.141 0.051 0.269-0.077 0.411-0.283 0.693-0.592 0.848-0.925 0.154-0.36 0.23-0.744 0.23-1.155 0.232-0.667 0.488-1.322 0.77-1.963 0.329-0.713 0.676-1.319 1.068-1.892l-0.028 0.044c0.372-0.55 0.777-1.029 1.229-1.461l0.003-0.003c0.437-0.437 0.912-0.77 1.424-1.002 0.36-0.307 0.81-0.59 1.349-0.846 0.565-0.256 1.155-0.448 1.771-0.578 0.586-0.146 1.259-0.23 1.952-0.23 0.004 0 0.008 0 0.012 0h-0.001c0.667-0.026 1.285 0.038 1.848 0.192 0.128 0.051 0.206 0.026 0.232-0.077 0.026-0.128 0.090-0.192 0.192-0.192 1.273 0.141 2.433 0.411 3.537 0.802l-0.11-0.034c1.011 0.345 1.882 0.858 2.626 1.511l-0.009-0.007c0.488 0.768 0.95 1.603 1.387 2.502 0.437 0.872 0.77 1.797 1 2.771 0.256 0.95 0.373 1.939 0.347 2.965-0.035 1.119-0.273 2.173-0.678 3.14l0.022-0.058c-0.891 1.115-1.978 2.031-3.217 2.705l-0.055 0.028c-1.283 0.667-2.669 1.232-4.158 1.694-1.462 0.437-2.99 0.795-4.582 1.078-1.565 0.282-3.093 0.59-4.581 0.923 0.026 0.694 0.026 1.438 0 2.234-0.026 0.771-0.115 1.552-0.27 2.349-0.128 0.77-0.333 1.528-0.616 2.272-0.256 0.744-0.616 1.437-1.078 2.080-0.075-0.003-0.162-0.005-0.251-0.005-0.484 0-0.955 0.058-1.406 0.167l0.041-0.008c-0.539 0.128-1.027 0.256-1.464 0.384l-0.616-0.384c-0.201-0.108-0.437-0.177-0.688-0.192l-0.005-0c0.077-0.309 0-0.63-0.23-0.963-0.233-0.377-0.449-0.692-0.679-0.995l0.023 0.032c-0.179-0.276-0.323-0.596-0.417-0.937l-0.006-0.024c-0.051-0.334 0.102-0.629 0.462-0.886-0.206-0.179-0.309-0.462-0.309-0.848 0.095 0.096 0.227 0.155 0.372 0.155 0.004 0 0.008-0 0.013-0h-0.001c-0.050-0.462 0-1.014 0.155-1.656 0.179-0.642 0.32-1.27 0.424-1.888 0.128-0.64 0.154-1.218 0.077-1.731-0.077-0.539-0.384-0.925-0.925-1.155zM125.114 9.846c-0.102 0.282-0.192 0.539-0.269 0.77-0.056 0.225-0.121 0.417-0.201 0.602l0.009-0.025c-0.094 0.216-0.184 0.393-0.284 0.564l0.013-0.025c-0.077 0.179-0.166 0.384-0.27 0.616 0.052 0.155 0.163 0.278 0.305 0.346l0.004 0.002c0.154 0.077 0.256 0.192 0.309 0.346 0.358-0.179 0.718-0.307 1.077-0.384 0.36-0.104 0.72-0.181 1.078-0.232 0.36-0.051 0.72-0.115 1.078-0.192 0.424-0.096 0.797-0.228 1.148-0.398l-0.031 0.014c0.384-0.181 0.784-0.322 1.194-0.426 0.437-0.128 0.859-0.256 1.27-0.384s0.808-0.27 1.194-0.424c0.384-0.179 0.72-0.411 1.002-0.693-0.36-0.334-0.899-0.629-1.616-0.886-0.694-0.25-1.495-0.415-2.329-0.46l-0.021-0.001c-0.225-0.022-0.486-0.034-0.75-0.034-0.621 0-1.226 0.068-1.808 0.198l0.055-0.010c-0.841 0.183-1.572 0.575-2.16 1.12l0.003-0.003zM160.077 8.037c0.026 0.179 0.026 0.32 0 0.422-0.001 0.083-0.015 0.163-0.042 0.237l0.002-0.005v0.269c0 0.077 0.026 0.206 0.078 0.384-0.539 0.874-1.168 1.477-1.888 1.811-0.653 0.295-1.415 0.535-2.209 0.683l-0.063 0.010c-0.821 0.128-1.667 0.27-2.541 0.424-0.96 0.191-1.812 0.539-2.571 1.020l0.031-0.018c-0.136-0.061-0.295-0.097-0.462-0.097s-0.326 0.036-0.47 0.1l0.007-0.003c-0.256 0.128-0.64 0.166-1.155 0.115-0.158 0.154-0.351 0.273-0.566 0.343l-0.010 0.003c-0.284 0.063-0.516 0.129-0.744 0.207l0.049-0.015c0.078 0.17 0.124 0.37 0.124 0.579 0 0.054-0.003 0.107-0.009 0.16l0.001-0.006c0 0.23 0.040 0.424 0.117 0.576 0.898 0.078 1.886 0.066 2.965-0.037 1.104-0.102 2.181-0.166 3.234-0.192 0.026 0.128 0.013 0.218-0.038 0.269-0.051 0.026-0.064 0.090-0.038 0.192 0.179 0.128 0.36 0.296 0.539 0.501l0.539 0.539c0.179 0.179 0.358 0.334 0.539 0.462 0.158 0.078 0.345 0.124 0.542 0.124 0.053 0 0.106-0.003 0.157-0.010l-0.006 0.001c0.102 0.205 0.166 0.437 0.192 0.693 0.016 0.073 0.024 0.157 0.024 0.244 0 0.176-0.037 0.344-0.104 0.495l0.003-0.008c-0.411 0.283-0.821 0.578-1.232 0.886-0.411 0.282-0.848 0.539-1.309 0.77-0.437 0.232-0.912 0.424-1.424 0.578-0.488 0.128-1.040 0.179-1.656 0.154h-0.309c-0.051 0-0.128-0.038-0.23-0.115-0.206 0.128-0.501 0.168-0.886 0.115-0.358-0.051-0.64-0.013-0.848 0.117-0.246-0.104-0.531-0.165-0.831-0.165-0.073 0-0.145 0.004-0.217 0.011l0.009-0.001c-0.014 0-0.030 0-0.047 0-0.355 0-0.696-0.056-1.016-0.16l0.023 0.007c-0.411 0.539-0.784 1.117-1.117 1.733-0.3 0.542-0.598 1.189-0.85 1.859l-0.035 0.105c0.872 0.128 1.592 0.181 2.155 0.155 0.592-0.026 1.142-0.064 1.656-0.115 0.514-0.078 1.040-0.142 1.579-0.192 0.539-0.078 1.219-0.104 2.040-0.078 0.514-0.282 1.117-0.462 1.811-0.539 0.718-0.102 1.373-0.256 1.963-0.462 0.205 0.077 0.384 0.219 0.539 0.424 0.154 0.179 0.294 0.36 0.422 0.539 0.155 0.154 0.309 0.294 0.464 0.424 0.125 0.101 0.286 0.163 0.461 0.163 0.040 0 0.080-0.003 0.119-0.010l-0.004 0.001c0.1 0.101 0.169 0.233 0.192 0.38l0 0.004c0.053 0.128 0.091 0.258 0.117 0.386s0.064 0.245 0.115 0.347c0.077 0.077 0.192 0.102 0.346 0.077-0.384 0.848-0.832 1.502-1.347 1.963-0.476 0.426-1.040 0.766-1.659 0.99l-0.036 0.011c-0.64 0.23-1.36 0.411-2.155 0.539-0.771 0.128-1.632 0.282-2.581 0.462-0.070 0.021-0.151 0.033-0.234 0.033-0.124 0-0.241-0.026-0.347-0.073l0.005 0.002c-0.152-0.049-0.326-0.077-0.507-0.077-0.012 0-0.024 0-0.035 0l0.002-0c-0.59 0.128-1.296 0.243-2.117 0.346-0.822 0.102-1.656 0.141-2.502 0.115-0.872-0.023-1.705-0.148-2.5-0.363l0.075 0.017c-0.771-0.181-1.4-0.514-1.888-1.002-0.19-0.161-0.336-0.369-0.419-0.606l-0.003-0.010c-0.053-0.256-0.219-0.448-0.501-0.578-0.036-0.427-0.091-0.809-0.166-1.183l0.011 0.067c0.043 0.353-0.038-0.077-0.116-0.509l-0.115-0.762c-0.077-0.462-0.141-0.912-0.192-1.347-0.007-0.094-0.011-0.203-0.011-0.314 0-0.311 0.032-0.615 0.093-0.909l-0.005 0.029c0.077-0.386 0.23-0.733 0.462-1.040 0.183-0.2 0.295-0.467 0.295-0.761 0-0.085-0.009-0.168-0.027-0.248l0.001 0.008c0.128-0.026 0.205-0.090 0.232-0.192 0.024-0.128 0.128-0.181 0.307-0.154 0.154-0.464 0.32-0.899 0.501-1.31 0.179-0.41 0.36-0.808 0.539-1.194 0.205-0.384 0.397-0.77 0.576-1.155 0.208-0.41 0.4-0.859 0.579-1.347-0.331-0.299-0.603-0.657-0.8-1.058l-0.009-0.021c-0.131-0.332-0.25-0.732-0.337-1.143l-0.009-0.050c-0.060-0.287-0.127-0.707-0.181-1.13l-0.011-0.102c-0.060-0.494-0.155-0.937-0.285-1.365l0.015 0.056c0.256-0.384 0.565-0.693 0.925-0.925 0.384-0.256 0.795-0.461 1.232-0.616 0.435-0.154 0.912-0.282 1.424-0.384 0.512-0.104 1.053-0.219 1.616-0.347 0.677-0.239 1.592-0.504 2.523-0.727l0.213-0.043c0.821-0.181 1.616-0.32 2.387-0.424 0.795-0.128 1.616-0.243 2.464-0.347 0.848-0.102 1.808-0.256 2.888-0.461 0.23 0.23 0.448 0.346 0.654 0.346 0.102-0.23 0.218-0.294 0.346-0.192 0.154 0.077 0.219 0 0.192-0.23 0.258 0.435 0.579 0.808 0.963 1.115 0.411 0.283 0.861 0.528 1.349 0.733z"></path>
<path fill="#303030" style="fill: var(--color1, #303030)" d="M181.061 11.194c-0.737 0.004-1.457 0.060-2.161 0.164l0.083-0.010c-1.005 0.102-1.756 0.198-2.504 0.308l0.308-0.037c-0.514 0.077-1.014 0.141-1.502 0.192-0.3 0.038-0.738 0.079-1.179 0.11l-0.092 0.005c-0.342 1.084-0.721 2.002-1.166 2.88l0.049-0.107c-0.205 0.437-0.397 0.885-0.578 1.347-0.154 0.437-0.307 0.912-0.462 1.424-0.256 0.411-0.474 0.797-0.654 1.157-0.154 0.333-0.282 0.718-0.384 1.155-0.309 0.384-0.539 0.795-0.693 1.232-0.115 0.283-0.234 0.642-0.332 1.010l-0.016 0.069-0.154 0.461c-0.155 0.154-0.245 0.283-0.27 0.384-0.041 0.096-0.107 0.175-0.19 0.231l-0.002 0.001c-0.033 0.316-0.129 0.604-0.276 0.858l0.006-0.010c-0.051 0.128-0.090 0.256-0.115 0.384-0.020 0.068-0.034 0.148-0.038 0.229l-0 0.003c0 0.256-0.064 0.422-0.192 0.501 0.012 0.064 0.019 0.137 0.019 0.211s-0.007 0.148-0.020 0.218l0.001-0.007-0.077 0.386c-0.077 0.309-0.102 0.552-0.077 0.731 0.077 0.102 0.141 0.192 0.192 0.27 0.077 0.077 0.128 0.179 0.154 0.307 0.154 0.102 0.27 0.168 0.347 0.192 0.102 0.078 0.256 0.168 0.462 0.27l0.346 0.384c0.128 0.746 0.013 1.336-0.346 1.773-0.386 0.488-1.040 0.731-1.965 0.731h-0.462c-0.096-0.085-0.173-0.187-0.228-0.303l-0.002-0.006c-0.344-0.123-0.51-0.188-0.675-0.254l0.174 0.062c-0.146-0.067-0.264-0.172-0.344-0.304l-0.002-0.003c-0.457-0.204-0.722-0.333-0.986-0.466l0.177 0.081-0.346-0.192v-0.464c-0.173-0.22-0.317-0.474-0.418-0.749l-0.006-0.019c-0.061-0.21-0.128-0.495-0.182-0.786l-0.010-0.062c-0.057-0.258-0.124-0.477-0.205-0.69l0.011 0.034c-0.049-0.204-0.129-0.383-0.234-0.544l0.004 0.006c-0.051-1.488 0.090-2.747 0.424-3.773 0.333-1.027 0.68-2.016 1.038-2.965l0.616-1.541c0.206-0.539 0.386-1.091 0.539-1.656l0.347-0.384c0.179-0.411 0.32-0.746 0.424-1.002l0.384-0.848c0.055-0.12 0.121-0.285 0.18-0.453l0.014-0.046c0.077-0.181 0.141-0.334 0.192-0.464-0.154 0-0.296 0.014-0.424 0.040-0.128 0-0.256 0.013-0.384 0.038-0.219 0.035-0.363 0.062-0.506 0.091l0.082-0.014h-0.386c-0.018 0.001-0.039 0.001-0.060 0.001-0.115 0-0.227-0.014-0.334-0.042l0.009 0.002c-0.283 0.128-0.59 0.192-0.925 0.192h-0.616c-0.045-0.024-0.097-0.038-0.153-0.038h-0c-0.018-0.001-0.039-0.001-0.060-0.001-0.201 0-0.392 0.043-0.564 0.12l0.009-0.004h-1.272c-0.070 0.003-0.135 0.017-0.196 0.040l0.004-0.001h-0.192c-0.205-0.001-0.405-0.015-0.601-0.041l0.024 0.003c-0.249-0.067-0.466-0.159-0.667-0.276l0.013 0.007c-0.309-0.411-0.514-0.629-0.616-0.656l-0.347-0.461c-0.026-0.16-0.066-0.302-0.12-0.438l0.005 0.014c-0.031-0.082-0.084-0.249-0.133-0.417l-0.021-0.084c-0.102-0.256-0.206-0.525-0.309-0.808-0.074-0.304-0.116-0.653-0.116-1.011 0-0.024 0-0.047 0.001-0.071l-0 0.004c0.012-0.173 0.068-0.33 0.156-0.465l-0.002 0.004c0.077-0.104 0.141-0.192 0.192-0.27l0.117-0.576 0.501 0.037h1.077c0.822 0 1.656-0.026 2.504-0.077 0.846-0.077 1.72-0.154 2.618-0.23l1.541-0.155 1.654-0.154c0.104-0.23 0.206-0.448 0.309-0.654l0.386-0.192c0.461-0.026 0.782 0.038 0.962 0.192 0.206 0.128 0.373 0.256 0.501 0.384l1.694-0.154c0.59-0.077 1.181-0.166 1.771-0.269 0.874-0.128 1.746-0.243 2.618-0.347 0.772-0.095 1.669-0.151 2.578-0.154h0.003c0.358 0 0.706 0.013 1.040 0.038 0.333 0.026 0.642 0.064 0.923 0.115l0.386 0.27c0.077 0.154 0.179 0.294 0.307 0.424l0.462 0.384c0.309 0.283 0.616 0.616 0.925 1.002 0.307 0.384 0.422 0.949 0.346 1.694-0.205 0.307-0.358 0.488-0.461 0.539l-0.347 0.461-0.386-0.038c-0.004-0-0.009-0-0.014-0-0.147 0-0.288 0.028-0.416 0.080l0.008-0.003c-0.148 0.030-0.277 0.071-0.4 0.122l0.014-0.005-0.309 0.154c-0.064 0.018-0.18 0.045-0.298 0.069l-0.048 0.008h-0.578c-0.122-0.024-0.263-0.038-0.407-0.038-0.006 0-0.012 0-0.018 0h0.001z"></path>
<path fill="#ffc107" style="fill: var(--color2, #ffc107)" d="M35.027 12.552c2.182 1.016 4.899-0.178 6.058-2.662l0.059-0.128c1.125-2.408 1.787-3.829-0.357-4.829-0.48-0.217-1.045-0.404-1.631-0.533l-0.058-0.011-0.026-0.027-0.058 0.008c-2.304-0.48-4.93-0.123-5.84 1.83-1.16 2.485-0.328 5.334 1.853 6.352zM34.56 7.44c0.672-0.294 1.606-0.459 2.8-0.221 1.026 0.205 1.859 0.187 2.502 0.072 0.045 0.597-0.066 1.243-0.354 1.862-0.754 1.614-2.432 2.43-3.744 1.819-1.174-0.549-1.661-2.061-1.205-3.533zM29.581 11.661c-0.768 0.784-1.754 1.176-2.778 1.104-0.333-0.022-1.072-0.39-1.542-0.626l-0.302-0.149c-1.434-0.667-1.723-1.854-1.597-3.714 0.163-2.336 1.968-4.118 4.027-3.976 0.963 0.066 1.478 0.768 2.078 1.584l0.112 0.154 0.184 0.245c0.568 0.755 1.136 1.51 1.067 2.507-0.068 1.12-0.531 2.12-1.251 2.872l0.002-0.002zM27.269 6.038c-1.101-0.075-2.074 0.982-2.17 2.358-0.093 1.376 0.726 2.557 1.824 2.632 0.507 0.035 1.008-0.173 1.413-0.586 0.44-0.45 0.709-1.080 0.757-1.771 0.006-0.071 0.010-0.154 0.010-0.238 0-0.608-0.194-1.171-0.523-1.629l0.006 0.008c-0.192-0.265-0.441-0.477-0.731-0.619l-0.012-0.005c-0.168-0.081-0.363-0.135-0.569-0.15l-0.005-0zM36.832 14.264l0.043 0.019c-0.94-0.449-1.992-0.701-3.103-0.701-1.436 0-2.774 0.42-3.869 1.127l-5.062 3.205c-0.807 0.515-1.441 1.277-1.806 2.211l0.011-0.031c-0.206 0.519-0.319 1.084-0.319 1.676 0 0.437 0.062 0.86 0.169 1.228l0.008 0.032c0.266 0.943 0.83 1.762 1.592 2.357l-0.010-0.007c0.751 0.591 1.693 0.95 2.722 0.971l0.078 0.002c2.573 0.081 4.873 1.241 6.472 3.052l0.004 0.005c0.407 0.464 0.906 0.844 1.496 1.124l-0.028-0.012c0.597 0.282 1.264 0.44 1.968 0.44 0.688 0 1.341-0.151 1.898-0.409 0.902-0.41 1.632-1.086 2.112-1.954l-0.012 0.023c0.372-0.66 0.585-1.421 0.585-2.233 0-0.217-0.015-0.431-0.042-0.615l-0.797-5.917-0.004-0.037c-0.334-2.456-1.906-4.518-4.109-5.556zM39.896 25.122c-2.739-1.088-6.784-1.893-7.115 1.173-1.568-1.014-3.473-1.636-5.52-1.686l-0.013-0h-0.043c-1.256-0.042-2.301-0.899-2.626-2.057l-0.005-0.020c-0.067-0.229-0.106-0.493-0.106-0.765 0-0.899 0.421-1.699 1.076-2.216l0.006-0.005c0.645-0.458 1.712-0.654 3.808 0.245 3.2 1.371 3.238-0.571 2.285-1.715 1.144 0 3.542-0.342 4-1.714 0.056-0.146 0.088-0.315 0.088-0.491 0-0.066-0.005-0.131-0.013-0.195l0.001 0.007c1.868 0.716 3.225 2.375 3.498 4.378l0.003 0.028 0.677 5.032zM43.616 17.546c-0.362-0.171-0.672-0.385-0.942-0.642l0.002 0.002c-1.606-1.518-1.509-4.24 0.216-6.064 0.764-0.825 1.804-1.383 2.973-1.529l0.024-0.002c0.768-0.083 0.941 0.197 1.197 0.613 0.131 0.214 0.288 0.467 0.56 0.725 0.229 0.216 0.531 0.427 0.845 0.646 0.781 0.546 1.632 1.141 1.589 1.976-0.079 1.203-0.583 2.275-1.361 3.080l0.001-0.001c-1.421 1.504-3.51 1.939-5.101 1.197zM46.077 11.043c-0.765 0.099-1.432 0.461-1.918 0.991l-0.002 0.002c-1.066 1.128-1.309 3.298-0.4 4.157 0.907 0.859 2.362 0.557 3.427-0.571 0.534-0.565 1.118-1.736 1.155-2.442 0.032-0.656-0.179-1.234-0.6-1.632-0.421-0.397-1.011-0.576-1.662-0.506zM49.696 20.536c-1.232-1.888-3.424-1.861-5.48-0.746-2.056 1.117-2.662 2.877-1.68 4.69 0.36 0.661 0.917 1.157 1.579 1.466 1.154 0.539 2.63 0.51 3.938-0.2 2.056-1.117 2.624-3.397 1.642-5.21zM47.222 24.216c-1.213 0.656-2.629 0.403-3.154-0.566-0.386-0.71-0.189-1.611 0.421-2.301 1.232-0.21 2.79-0.403 3.808-0.336 0.064 0.078 0.12 0.162 0.168 0.251 0.525 0.97-0.032 2.293-1.243 2.952z"></path>
</symbol>
<symbol id="add-photo-pet" viewBox="0 0 33 32">
<path fill="none" stroke="#54adff" style="stroke: var(--color1, #54adff)" stroke-linejoin="miter" stroke-linecap="round" stroke-miterlimit="4" stroke-width="1.28" d="M16.64 31.36v-15.36M16.64 16v-15.36M16.64 16h15.6M16.64 16h-15.6"></path>
</symbol>
</defs>
</svg>
