<svg width="25" height="25" viewBox="0 0 25 25" fill="none" xmlns="http://www.w3.org/2000/svg">
<path fill-rule="evenodd" clip-rule="evenodd" d="M11.4496 7.9824C13.3581 8.87236 15.7358 7.8274 16.7497 5.65297L16.8016 5.54184C17.785 3.43449 18.3651 2.19128 16.4893 1.31658C16.0379 1.11615 15.5347 0.953082 15.0111 0.839141L14.9885 0.816487L14.9383 0.823648C12.9211 0.403753 10.6245 0.715909 9.82753 2.42509C8.81358 4.59952 9.54124 7.09252 11.4496 7.9824ZM11.0382 3.51068C11.628 3.25298 12.4448 3.1077 13.4885 3.31644C14.3864 3.49602 15.1163 3.48076 15.6783 3.37926C15.7183 3.90196 15.6207 4.46801 15.3685 5.00889C14.7098 6.42159 13.2405 7.13592 12.0937 6.60116C11.0652 6.12158 10.6399 4.79773 11.0382 3.51068Z" fill="#FFC107"/>
<path fill-rule="evenodd" clip-rule="evenodd" d="M6.6835 7.20369C6.01243 7.88947 5.14936 8.23271 4.25311 8.17022C3.96216 8.15024 3.31641 7.82796 2.9029 7.62159C2.79619 7.56834 2.70489 7.52277 2.63921 7.49215C1.38525 6.90741 1.13105 5.8691 1.24242 4.24186C1.38476 2.19854 2.9651 0.638632 4.76549 0.763558C5.60812 0.821308 6.05847 1.43394 6.58404 2.14891L6.58472 2.14983C6.61732 2.19418 6.65021 2.23891 6.6835 2.28393C6.7364 2.35554 6.79002 2.4269 6.84365 2.49827C7.33992 3.15869 7.83694 3.82013 7.77708 4.69234C7.71032 5.65926 7.32184 6.55101 6.6835 7.20369ZM4.6606 2.28395C3.69786 2.21716 2.84671 3.14268 2.76282 4.34675C2.6806 5.5505 3.39705 6.58388 4.35889 6.64981C4.80194 6.68065 5.24069 6.49872 5.59397 6.13773C5.97945 5.74382 6.21467 5.19339 6.2566 4.58763C6.29819 3.98215 6.14059 3.40438 5.81281 2.96109C5.63063 2.71439 5.40823 2.52905 5.16265 2.41453C5.00354 2.34034 4.83451 2.29588 4.6606 2.28395Z" fill="#FFC107"/>
<path fill-rule="evenodd" clip-rule="evenodd" d="M13.0291 9.48089C14.9937 10.397 16.339 12.2268 16.628 14.3754L17.3244 19.5525C17.4399 20.4118 17.2793 21.2669 16.8597 22.0257C16.4403 22.7844 15.8014 23.3754 15.0124 23.7345C14.2229 24.0935 13.3577 24.1869 12.5101 24.0046C12.2116 23.9402 11.9249 23.844 11.6542 23.7177C11.1562 23.4855 10.711 23.1518 10.3406 22.7299C8.90496 21.0934 6.83879 20.1214 4.66432 20.0575L4.60767 20.0565C3.74074 20.0373 2.92067 19.7457 2.2362 19.2135C1.55182 18.6812 1.06722 17.9584 0.834964 17.123C0.603146 16.2876 0.645252 15.4186 0.957007 14.6097C1.26868 13.801 1.82048 13.1284 2.55282 12.6646L6.96649 9.87016C8.79799 8.71038 11.0646 8.56485 13.0291 9.48089ZM15.7097 18.9811C13.313 18.0288 9.77329 17.3248 9.48429 20.0075C9.1354 19.7849 8.77239 19.5857 8.39788 19.4111C7.23111 18.867 5.95239 18.5616 4.64262 18.5326L4.60533 18.5319C3.5182 18.4924 2.59574 17.7662 2.30336 16.7152C2.03196 15.7369 2.3729 14.7184 3.15567 14.1024C3.72167 13.7027 4.65472 13.5304 6.48882 14.3165C9.28882 15.5165 9.32216 13.8165 8.48882 12.8165C9.4887 12.8165 11.5885 12.5165 11.9888 11.3165C12.0653 11.0871 12.0822 10.8906 12.0546 10.7228C12.1658 10.765 12.276 10.8115 12.3849 10.8623C13.8765 11.5579 14.898 12.9471 15.1176 14.5785L15.7097 18.9811Z" fill="#FFC107"/>
<path fill-rule="evenodd" clip-rule="evenodd" d="M18.9653 12.3525C18.667 12.2134 18.389 12.0271 18.1409 11.7927C16.7356 10.4642 16.8207 8.08362 18.3307 6.48606C19.0461 5.72861 19.9773 5.25323 20.9529 5.14715C21.6253 5.07413 21.7755 5.31845 21.9991 5.68219C22.1149 5.87073 22.2505 6.09135 22.4888 6.31649C22.6891 6.50589 22.9543 6.69116 23.2293 6.88333C23.9124 7.36062 24.6564 7.88041 24.6185 8.61159C24.5678 9.59147 24.1455 10.5482 23.4295 11.3054C22.186 12.621 20.3571 13.0015 18.9653 12.3525ZM21.1176 6.66239C20.5018 6.72936 19.9055 7.03833 19.4383 7.53289C18.5056 8.51974 18.2921 10.4178 19.0866 11.1692C19.882 11.9207 21.1539 11.656 22.0866 10.6692C22.5542 10.1748 23.0644 9.15111 23.0965 8.53266C23.1261 7.96034 22.9399 7.45372 22.5721 7.10578C22.204 6.75793 21.6873 6.60041 21.1176 6.66239Z" fill="#FFC107"/>
<path fill-rule="evenodd" clip-rule="evenodd" d="M24.2831 14.9696C23.2077 13.3166 21.2877 13.3405 19.4889 14.3166C17.6909 15.2939 17.16 16.8345 18.0205 18.4202C18.3343 18.9988 18.8214 19.4326 19.401 19.7029C20.4112 20.1739 21.7026 20.1484 22.8472 19.5278C24.6452 18.5505 25.1436 16.5558 24.2831 14.9696ZM22.1202 18.1883C21.0583 18.7641 19.8204 18.5421 19.3601 17.6934C19.0229 17.072 19.1952 16.2836 19.7286 15.68C20.8068 15.4965 22.1708 15.3278 23.0608 15.3867C23.1161 15.4544 23.1655 15.5277 23.2082 15.6063C23.6675 16.4543 23.1793 17.6126 22.1202 18.1883Z" fill="#FFC107"/>
</svg>
